<?xml version="1.0" encoding="utf-8"?><svg width="100%" height="100%" version="1.1" viewBox="-115 141 582 166" style="background-color:#FFFFFF" xmlns:xlink="http://www.w3.org/1999/xlink" xmlns="http://www.w3.org/2000/svg"><defs /><filter id="shadow1" width="150%" height="150%" filterUnits="userSpaceOnUse"><feGaussianBlur in="SourceAlpha" result="blur" stdDeviation="5" /><feOffset dx="5" dy="5" in="blur" result="offsetBlur" /><feMerge><feMergeNode in="offsetBlur" /><feMergeNode in="SourceGraphic" /></feMerge></filter><radialGradient id="gradient1" gradientUnits="objectBoundingBox" cx="50%" cy="50%" r="106.017139159076%"><stop offset="0%" stop-color="#000000" stop-opacity="1" /><stop offset="100%" stop-color="#000000" stop-opacity="0" /></radialGradient><radialGradient id="gradient2" gradientUnits="objectBoundingBox" cx="50%" cy="50%" r="90.5766995102852%"><stop offset="0%" stop-color="#727E0A" stop-opacity="1" /><stop offset="100%" stop-color="#5B6508" stop-opacity="1" /></radialGradient><radialGradient id="gradient3" gradientUnits="objectBoundingBox" cx="50%" cy="50%" r="71.0678880077286%"><stop offset="0%" stop-color="#000000" stop-opacity="1" /><stop offset="100%" stop-color="#000000" stop-opacity="0" /></radialGradient><radialGradient id="gradient4" gradientUnits="objectBoundingBox" cx="50%" cy="50%" r="71.0678880077286%"><stop offset="0%" stop-color="#E9B15E" stop-opacity="1" /><stop offset="100%" stop-color="#966416" stop-opacity="1" /></radialGradient><linearGradient id="gradient5" x1="50%" y1="0%" x2="50%" y2="100%"><stop offset="0%" stop-color="#FFFFFF" stop-opacity="1" /><stop offset="100%" stop-color="#C9C9C9" stop-opacity="1" /></linearGradient><linearGradient id="gradient6" x1="100%" y1="39.8285624440719%" x2="0%" y2="60.1714375559281%"><stop offset="0%" stop-color="#000000" stop-opacity="1" /><stop offset="100%" stop-color="#000000" stop-opacity="0" /></linearGradient><linearGradient id="gradient7" x1="0%" y1="75.4542280473227%" x2="100%" y2="24.5457719526773%"><stop offset="0%" stop-color="#000000" stop-opacity="1" /><stop offset="100%" stop-color="#000000" stop-opacity="0" /></linearGradient><radialGradient id="gradient8" gradientUnits="objectBoundingBox" cx="50%" cy="50%" r="161.485167231247%"><stop offset="0%" stop-color="#000000" stop-opacity="1" /><stop offset="100%" stop-color="#000000" stop-opacity="0" /></radialGradient><radialGradient id="gradient9" gradientUnits="objectBoundingBox" cx="50%" cy="50%" r="90.5766995102852%"><stop offset="0%" stop-color="#3B74BC" stop-opacity="1" /><stop offset="100%" stop-color="#2D5990" stop-opacity="1" /></radialGradient><linearGradient id="gradient10" x1="50%" y1="0%" x2="50%" y2="100%"><stop offset="0%" stop-color="#FFFFFF" stop-opacity="1" /><stop offset="100%" stop-color="#C9C9C9" stop-opacity="1" /></linearGradient><radialGradient id="gradient11" gradientUnits="objectBoundingBox" cx="50%" cy="50%" r="71.0678880077286%"><stop offset="0%" stop-color="#000000" stop-opacity="1" /><stop offset="100%" stop-color="#000000" stop-opacity="0" /></radialGradient><radialGradient id="gradient12" gradientUnits="objectBoundingBox" cx="50%" cy="50%" r="71.0678880077286%"><stop offset="0%" stop-color="#F4D9B1" stop-opacity="1" /><stop offset="100%" stop-color="#DF9725" stop-opacity="1" /></radialGradient><linearGradient id="gradient13" x1="100%" y1="39.8285624440719%" x2="0%" y2="60.1714375559281%"><stop offset="0%" stop-color="#000000" stop-opacity="1" /><stop offset="100%" stop-color="#000000" stop-opacity="0" /></linearGradient><linearGradient id="gradient14" x1="0%" y1="75.4542280473227%" x2="100%" y2="24.5457719526773%"><stop offset="0%" stop-color="#000000" stop-opacity="1" /><stop offset="100%" stop-color="#000000" stop-opacity="0" /></linearGradient><marker id="marker1" markerUnits="strokeWidth" orient="auto" refX="-11.1725422772867" refY="0" markerWidth="13.2724723815918" markerHeight="10.2295475006104" viewBox="-12.2724723815918 -5.11477375030518 13.2724723815918 10.2295475006104"><path d="M-11.2724725541685 -4.11477368946542 L0 0 L-11.2724725541685 4.11477368946542 Z " fill="#000000" fill-opacity="1" stroke="#000000" stroke-opacity="1" /></marker><marker id="marker2" markerUnits="strokeWidth" orient="auto" refX="11.1725422772867" refY="0" markerWidth="13.2724723815918" markerHeight="10.2295475006104" viewBox="-1 -5.11477375030518 13.2724723815918 10.2295475006104"><path d="M11.2724725541685 4.11477368946542 L0 0 L11.2724725541685 -4.11477368946542 Z " fill="#000000" fill-opacity="1" stroke="#000000" stroke-opacity="1" /></marker><marker id="marker3" markerUnits="strokeWidth" orient="auto" refX="-11.1725422772867" refY="0" markerWidth="13.2724723815918" markerHeight="10.2295475006104" viewBox="-12.2724723815918 -5.11477375030518 13.2724723815918 10.2295475006104"><path d="M-11.2724725541685 -4.11477368946542 L0 0 L-11.2724725541685 4.11477368946542 Z " fill="#000000" fill-opacity="1" stroke="#000000" stroke-opacity="1" /></marker><marker id="marker4" markerUnits="strokeWidth" orient="auto" refX="-11.1725422772867" refY="0" markerWidth="13.2724723815918" markerHeight="10.2295475006104" viewBox="-12.2724723815918 -5.11477375030518 13.2724723815918 10.2295475006104"><path d="M-11.2724725541685 -4.11477368946542 L0 0 L-11.2724725541685 4.11477368946542 Z " fill="#000000" fill-opacity="1" stroke="#000000" stroke-opacity="1" /></marker><g id="layer1" /><g id="layer2"><g><rect x="42.2214156079854" y="198.4" width="96.7549909255899" height="51.2" rx="32" ry="32" opacity="1" stroke="#000000" stroke-opacity="1" stroke-width="1" stroke-linecap="butt" stroke-linejoin="miter" stroke-dasharray="none" fill="#FFFFFF" fill-opacity="1" filter="url(#shadow1)" /><text x="75.3020362854004" y="214.533599376678" font-size="12" fill="#000000" fill-opacity="1" font-family="Lucida Grande" font-weight="normal" font-style="normal">Player</text><text x="55.0842628479004" y="229.533599376678" font-size="12" fill="#000000" fill-opacity="1" font-family="Lucida Grande" font-weight="normal" font-style="normal">Management</text><text x="83.4143409729004" y="244.533599376678" font-size="12" fill="#000000" fill-opacity="1" font-family="Lucida Grande" font-weight="normal" font-style="normal">API</text><g><g><path d="M-76.6236516010739 227.807625008538 Q-76.6226947546426 229.488952579703 -78.4728895815092 230.8493553989 Q-80.323084408376 232.209758218096 -83.3174549488932 232.729414224076 Q-86.3118254894112 233.249070230057 -89.3061960299285 232.729414224076 Q-92.3005665704457 232.209758218095 -94.1507613973124 230.849355398899 Q-96.000956224179 229.488952579703 -95.9999993777477 227.807625008538 Q-96.0009562241782 226.126297437371 -94.1507613973107 224.765894618176 Q-92.3005665704425 223.40549179898 -89.3061960299252 222.885835793001 Q-86.3118254894072 222.36617978702 -83.3174549488907 222.885835793001 Q-80.3230844083735 223.405491798983 -78.4728895815077 224.765894618178 Q-76.6226947546417 226.126297437374 -76.6236516010739 227.80762500854 Z " opacity="1" fill="url(#gradient1)" filter="url(#shadow1)" /><path d="M-89.4624671780136 230.691724708388 L-82.7809665596074 230.691724708388 C-80.8878746547319 230.691724708388 -79.013633011656 230.005575216178 -78.3266334439412 228.049922884155 C-77.674245184351 226.192798857509 -78.2152749113197 222.656244600742 -82.4468915916809 219.794292883938 L-90.3533341791096 219.794292883938 C-94.5849508594708 222.436094085493 -95.1137692401961 226.048994344637 -94.1395173589228 228.159997519101 C-93.146990349155 230.310598694764 -91.4669176155107 230.691724708388 -89.4624671780136 230.691724708388 Z " opacity="1" stroke="#404604" stroke-opacity="1" stroke-width="1" stroke-linecap="round" stroke-linejoin="round" stroke-dasharray="none" fill="url(#gradient2)" filter="url(#shadow1)" /><path d="M-86.267930495525 221.445419257589 C-86.267930495525 221.445419257589 -87.6231303941251 222.479274356769 -87.5063827427462 223.724754878271 C-88.7922283680753 222.603438963427 -88.8291723362535 220.454743184327 -88.8291723362535 220.454743184327 L-86.267930495525 221.445419257589 Z " opacity="1" fill="#9DB029" fill-opacity="1" filter="url(#shadow1)" /><path d="M-89.3960307771078 230.029068257665 L-82.8971693147005 230.029068257665 C-81.2343077444331 230.029068257665 -79.5880040919376 229.426365794762 -78.9845544481306 227.70855240942 C-78.4115068673825 226.077283879499 -79.0442234261479 222.970831177506 -82.761207927352 220.456938749126 L-90.0210690227775 220.456938749126 C-93.7380535239816 222.77745459737 -94.3600435001402 225.950968540902 -93.5042766389814 227.80524007681 C-92.6324564403107 229.694293817505 -91.156707845027 230.029068257665 -89.3960307771078 230.029068257665 Z " opacity="0.215189829468727" stroke="#FFFFFF" stroke-opacity="1" stroke-width="0.999999761581421" stroke-linecap="round" stroke-linejoin="round" stroke-dasharray="none" fill-opacity="0" filter="url(#shadow1)" /><path d="M-85.6515816132849 221.445419257589 C-85.6515816132849 221.445419257589 -84.2963817146848 222.479274356769 -84.4131293660636 223.724754878271 C-83.1272837407346 222.603438963427 -83.0903397725563 220.454743184327 -83.0903397725563 220.454743184327 L-85.6515816132849 221.445419257589 Z " opacity="1" fill="#9DB029" fill-opacity="1" filter="url(#shadow1)" /><path d="M-80.8552596198208 218.781490548751 Q-80.854720706251 220.53436520475 -81.8967845790918 221.952658501437 Q-82.9388484519318 223.370951798123 -84.6253332030837 223.912721206027 Q-86.3118179542355 224.454490613929 -87.9983027053873 223.912721206027 Q-89.6847874565392 223.370951798123 -90.7268513293792 221.952658501437 Q-91.7689152022193 220.53436520475 -91.7683762886503 218.78149054875 Q-91.7689152022185 217.02861589275 -90.7268513293776 215.610322596063 Q-89.6847874565368 214.192029299377 -87.998302705385 213.650259891475 Q-86.3118179542331 213.108490483572 -84.6253332030821 213.650259891475 Q-82.9388484519303 214.192029299379 -81.8967845790902 215.610322596066 Q-80.854720706251 217.028615892753 -80.8552596198208 218.781490548753 Z " opacity="1" fill="url(#gradient3)" filter="url(#shadow1)" /><path d="M-80.7765173819862 216.602115394262 Q-80.7759784684164 218.354990050261 -81.8180423412572 219.773283346947 Q-82.8601062140973 221.191576643634 -84.5465909652491 221.733346051537 Q-86.2330757164009 222.27511545944 -87.9195604675528 221.733346051537 Q-89.6060452187047 221.191576643634 -90.6481090915447 219.773283346947 Q-91.6901729643847 218.354990050261 -91.6896340508157 216.602115394261 Q-91.6901729643839 214.84924073826 -90.648109091543 213.430947441574 Q-89.6060452187022 212.012654144888 -87.9195604675504 211.470884736985 Q-86.2330757163985 210.929115329083 -84.5465909652475 211.470884736986 Q-82.8601062140957 212.012654144889 -81.8180423412556 213.430947441577 Q-80.7759784684164 214.849240738264 -80.7765173819862 216.602115394263 Z " opacity="1" stroke="#6F4709" stroke-opacity="1" stroke-width="1" stroke-linecap="round" stroke-linejoin="round" stroke-dasharray="none" fill="url(#gradient4)" filter="url(#shadow1)" /><path d="M-81.4471425097052 216.60212313789 Q-81.4466698313084 218.139560734294 -82.3606588438573 219.383538693351 Q-83.2746478564062 220.627516652408 -84.7538551992173 221.102699891233 Q-86.2330625420293 221.577883130057 -87.7122698848403 221.102699891233 Q-89.1914772276522 220.627516652408 -90.1054662402011 219.383538693351 Q-91.01945525275 218.139560734293 -91.0189825743524 216.602123137889 Q-91.0194552527492 215.064685541484 -90.1054662401995 213.820707582427 Q-89.1914772276506 212.57672962337 -87.7122698848387 212.101546384546 Q-86.2330625420276 211.626363145722 -84.7538551992165 212.101546384547 Q-83.2746478564047 212.576729623372 -82.3606588438565 213.82070758243 Q-81.4466698313076 215.064685541488 -81.4471425097052 216.602123137891 Z " opacity="0.126582279801369" stroke="#FFFFFF" stroke-opacity="1" stroke-width="1.14012825489044" stroke-linecap="round" stroke-linejoin="round" stroke-dasharray="none" fill-opacity="0" filter="url(#shadow1)" /><path d="M-83.3377573329011 225.958496725364 L-80.6651575894889 225.958496725364 L-82.2241738965 224.527520866962 L-82.5582488644266 224.967821274781 L-82.892324462291 224.637596124587 L-83.3377573329011 225.958496725364 Z " opacity="1" fill="url(#gradient5)" filter="url(#shadow1)" /><path d="M-92.1795282535656 230.047693197735 C-92.9654431905104 229.708352655287 -93.3171923261723 228.890583848032 -93.3171923261723 228.890583848032 C-92.7872375374706 226.356819876993 -90.9738702585888 224.503055824157 -90.9738702585888 224.503055824157 C-90.9738702585888 224.503055824157 -92.4097012638247 228.495368485374 -92.1795282535656 230.047693197735 Z " opacity="0.227848067879677" fill="url(#gradient6)" filter="url(#shadow1)" /><path d="M-80.270106522397 229.513216385383 C-79.4944948497885 229.151453808668 -79.1334591695653 228.26641391718 -79.1334591695653 228.26641391718 C-79.7376452107805 225.748934859973 -81.6381861313552 224.005535610318 -81.6381861313552 224.005535610318 C-81.6381861313552 224.005535610318 -80.0856455859836 227.954938242779 -80.270106522397 229.513216385383 Z " opacity="0.227848067879677" fill="url(#gradient7)" filter="url(#shadow1)" /></g><g><path d="M-68.3557166284425 233.64524600193 Q-68.3547597820112 234.66889675504 -70.2049546088779 235.497157347612 Q-72.0551494357445 236.325417940184 -75.0495199762619 236.641802606088 Q-78.0438905167799 236.958187271993 -81.0382610572971 236.641802606088 Q-84.0326315978143 236.325417940184 -85.882826424681 235.497157347612 Q-87.7330212515478 234.668896755039 -87.7320644051163 233.64524600193 Q-87.7330212515469 232.62159524882 -85.8828264246795 231.793334656248 Q-84.0326315978111 230.965074063676 -81.0382610572939 230.648689397772 Q-78.0438905167758 230.332304731867 -75.0495199762594 230.648689397772 Q-72.0551494357422 230.965074063677 -70.2049546088763 231.793334656249 Q-68.3547597820105 232.621595248822 -68.3557166284425 233.645246001931 Z " opacity="1" fill="url(#gradient8)" filter="url(#shadow1)" /><path d="M-81.1945322053823 235.050475017367 L-74.5130315869761 235.050475017367 C-72.6199396821005 235.050475017367 -70.7456980390247 234.364325525156 -70.0586984713098 232.408673193133 C-69.4063102117197 230.551549166487 -69.9473399386884 227.01499490972 -74.1789566190495 224.153043192917 L-82.0853992064783 224.153043192917 C-86.3170158868394 226.794844394472 -86.8458342675647 230.407744653615 -85.8715823862914 232.518747828079 C-84.8790553765236 234.669349003743 -83.1989826428793 235.050475017367 -81.1945322053823 235.050475017367 Z " opacity="1" stroke="#204A87" stroke-opacity="1" stroke-width="1" stroke-linecap="round" stroke-linejoin="round" stroke-dasharray="none" fill="url(#gradient9)" filter="url(#shadow1)" /><path d="M-80.7490987048343 225.1437186435 C-78.7446488972752 226.904919652096 -77.8537818961792 233.289274008771 -77.8537818961792 233.289274008771 C-77.8537818961792 233.289274008771 -76.9629155250211 226.904920274775 -75.403898588072 225.033644008554 L-80.7490987048343 225.1437186435 Z " opacity="1" fill="url(#gradient10)" filter="url(#shadow1)" /><path d="M-79.313193051957 225.804169566567 C-79.313193051957 225.804169566567 -80.6683929505571 226.838024665747 -80.5516452991782 228.08350518725 C-81.8374909245073 226.962189272406 -81.8744348926856 224.813493493306 -81.8744348926856 224.813493493306 L-79.313193051957 225.804169566567 Z " opacity="1" fill="#729FCF" fill-opacity="1" filter="url(#shadow1)" /><path d="M-81.2394543370979 234.401577896011 L-74.6292343420691 234.387818566643 C-72.9663727718017 234.387818566643 -71.3200691193062 233.785116103741 -70.7166194754992 232.067302718399 C-70.1435718947512 230.436034188477 -70.7762884535166 227.329581486485 -74.4932729547207 224.815689058104 L-81.7531340501461 224.664335812375 C-85.4701185513503 226.984851660619 -86.1895473222949 230.158365604152 -85.3198607233006 232.163990385789 C-84.4501734943684 234.169615167425 -83.1810886268158 234.387818566643 -81.2394543370979 234.401577896011 Z " opacity="0.215189829468727" stroke="#FFFFFF" stroke-opacity="1" stroke-width="0.999999761581421" stroke-linecap="round" stroke-linejoin="round" stroke-dasharray="none" fill-opacity="0" filter="url(#shadow1)" /><path d="M-76.5174820244731 225.804169566567 C-76.5174820244731 225.804169566567 -75.162282125873 226.838024665747 -75.2790297772519 228.08350518725 C-73.9931841519228 226.962189272406 -73.9562401837445 224.813493493306 -73.9562401837445 224.813493493306 L-76.5174820244731 225.804169566567 Z " opacity="1" fill="#729FCF" fill-opacity="1" filter="url(#shadow1)" /><path d="M-72.5873246471895 223.14024085773 Q-72.5867857336196 224.893115513729 -73.6288496064605 226.311408810415 Q-74.6709134793005 227.729702107102 -76.3573982304523 228.271471515005 Q-78.0438829816042 228.813240922907 -79.730367732756 228.271471515005 Q-81.4168524839079 227.729702107102 -82.4589163567479 226.311408810415 Q-83.5009802295879 224.893115513729 -83.500441316019 223.140240857729 Q-83.5009802295871 221.387366201728 -82.4589163567463 219.969072905041 Q-81.4168524839055 218.550779608356 -79.7303677327536 218.009010200453 Q-78.0438829816018 217.467240792551 -76.3573982304508 218.009010200454 Q-74.6709134792989 218.550779608357 -73.6288496064589 219.969072905045 Q-72.5867857336196 221.387366201731 -72.5873246471895 223.140240857731 Z " opacity="1" fill="url(#gradient11)" filter="url(#shadow1)" /><path d="M-72.5085824093549 220.96086570324 Q-72.508043495785 222.713740359239 -73.5501073686259 224.132033655926 Q-74.5921712414659 225.550326952613 -76.2786559926178 226.092096360516 Q-77.9651407437696 226.633865768418 -79.6516254949214 226.092096360516 Q-81.3381102460733 225.550326952613 -82.3801741189133 224.132033655926 Q-83.4222379917533 222.713740359239 -83.4216990781844 220.96086570324 Q-83.4222379917526 219.207991047239 -82.3801741189117 217.789697750552 Q-81.3381102460709 216.371404453866 -79.651625494919 215.829635045964 Q-77.9651407437672 215.287865638062 -76.2786559926162 215.829635045965 Q-74.5921712414643 216.371404453868 -73.5501073686243 217.789697750555 Q-72.508043495785 219.207991047242 -72.5085824093549 220.960865703242 Z " opacity="1" stroke="#C17D11" stroke-opacity="1" stroke-width="1" stroke-linecap="round" stroke-linejoin="round" stroke-dasharray="none" fill="url(#gradient12)" filter="url(#shadow1)" /><path d="M-73.1792075370739 220.960873446868 Q-73.1787348586771 222.498311043272 -74.092723871226 223.742289002329 Q-75.0067128837749 224.986266961387 -76.485920226586 225.461450200212 Q-77.9651275693979 225.936633439036 -79.4443349122089 225.461450200212 Q-80.9235422550209 224.986266961387 -81.8375312675698 223.742289002329 Q-82.7515202801187 222.498311043271 -82.751047601721 220.960873446868 Q-82.7515202801179 219.423435850463 -81.8375312675682 218.179457891406 Q-80.9235422550192 216.935479932349 -79.4443349122074 216.460296693524 Q-77.9651275693963 215.9851134547 -76.4859202265852 216.460296693525 Q-75.0067128837733 216.93547993235 -74.0927238712252 218.179457891408 Q-73.1787348586762 219.423435850466 -73.1792075370739 220.960873446869 Z " opacity="0.196202531456947" stroke="#FFFFFF" stroke-opacity="1" stroke-width="1.14012825489044" stroke-linecap="round" stroke-linejoin="round" stroke-dasharray="none" fill-opacity="0" filter="url(#shadow1)" /><path d="M-83.7989373912023 234.514447112584 C-84.584852328147 234.175106570136 -84.9366014638089 233.357337762881 -84.9366014638089 233.357337762881 C-84.4066466751072 230.823573791842 -82.5932797111944 228.969809739006 -82.5932797111944 228.969809739006 C-82.5932797111944 228.969809739006 -84.0291104014613 232.962122400223 -83.7989373912023 234.514447112584 Z " opacity="0.227848067879677" fill="url(#gradient13)" filter="url(#shadow1)" /><path d="M-71.8895159750026 233.979970300232 C-71.113904302394 233.618207723516 -70.7528686221708 232.733167832029 -70.7528686221708 232.733167832029 C-71.3570546633861 230.215688774822 -73.2575955839608 228.472289525167 -73.2575955839608 228.472289525167 C-73.2575955839608 228.472289525167 -71.7050550385892 232.421692157628 -71.8895159750026 233.979970300232 Z " opacity="0.227848067879677" fill="url(#gradient14)" filter="url(#shadow1)" /></g></g><path d="M-72.6528814545831 224.000013969715 L-13.0671556261772 224.000013969715 C-13.0671517845056 224.000013969715 -13.0671486413198 224.000010826529 -13.0671486413198 224.000006984857 L-13.0671486413198 224.000006984857 C-13.0671486413198 224.000003143186 -13.0671454981339 224 -13.0671416564623 224 L42.2214156079854 224" opacity="1" stroke="#000000" stroke-opacity="1" stroke-width="1" stroke-linecap="butt" stroke-linejoin="miter" stroke-dasharray="none" fill-opacity="0" /><text x="-51.9638471603394" y="203.43803358078" font-size="12" fill="#000000" fill-opacity="1" font-family="Gotham-Book" font-weight="normal" font-style="normal">Create, Update,</text><text x="-47.5058460235596" y="216.43803358078" font-size="12" fill="#000000" fill-opacity="1" font-family="Gotham-Book" font-weight="normal" font-style="normal">Publish player</text><rect x="194.26497277677" y="160" width="96.7549909255899" height="38.4" opacity="1" stroke="#000000" stroke-opacity="1" stroke-width="1" stroke-linecap="butt" stroke-linejoin="miter" stroke-dasharray="none" fill="#FFFFFF" fill-opacity="1" filter="url(#shadow1)" /><text x="208.038948059082" y="184.733596801758" font-size="12" fill="#000000" fill-opacity="1" font-family="Lucida Grande" font-weight="normal" font-style="normal">Embed Code</text><path d="M138.976406533575 224 L144.220689655172 224 C156.540689655172 224 166.620689655172 213.92 166.620689655172 201.6 L166.620689655172 201.6 C166.620689655172 189.28 176.700689655172 179.2 189.020689655172 179.2 L189.020689655172 179.2" marker-end="url(#marker1)" opacity="1" stroke="#000000" stroke-opacity="1" stroke-width="1" stroke-linecap="butt" stroke-linejoin="miter" stroke-dasharray="none" fill-opacity="0" /><rect x="194.26497277677" y="236.8" width="96.7549909255899" height="51.2" rx="32" ry="32" opacity="1" stroke="#000000" stroke-opacity="1" stroke-width="1" stroke-linecap="butt" stroke-linejoin="miter" stroke-dasharray="none" fill="#FFFFFF" fill-opacity="1" filter="url(#shadow1)" /><text x="221.298713684082" y="252.933600902557" font-size="12" fill="#000000" fill-opacity="1" font-family="Lucida Grande" font-weight="normal" font-style="normal">Delivery</text><text x="224.029182434082" y="267.933600902557" font-size="12" fill="#000000" fill-opacity="1" font-family="Lucida Grande" font-weight="normal" font-style="normal">System</text><text x="235.457893371582" y="282.933600902557" font-size="12" fill="#000000" fill-opacity="1" font-family="Lucida Grande" font-weight="normal" font-style="normal">API</text><path d="M185.820689655172 262.4 L185.820689655172 262.4 C175.260689655172 262.4 166.620689655172 253.76 166.620689655172 243.2 L166.620689655172 243.2 C166.620689655172 232.64 157.980689655172 224 147.420689655172 224 L138.976406533575 224" marker-start="url(#marker2)" opacity="1" stroke="#000000" stroke-opacity="1" stroke-width="1" stroke-linecap="butt" stroke-linejoin="miter" stroke-dasharray="16,4" fill-opacity="0" /><line x1="291.019963702359" y1="262.4" x2="334.135987668267" y2="262.4" marker-end="url(#marker3)" opacity="1" stroke="#000000" stroke-opacity="1" stroke-width="1" stroke-linecap="butt" stroke-linejoin="miter" stroke-dasharray="16,4" /><g><g><g><path d="M346.308529945554 243.2 L346.308529945554 281.6 Q356.675136116152 288 387.774954627949 288 Q418.874773139746 288 429.241379310345 281.6 L429.241379310345 243.2 Z " opacity="1" stroke="#000000" stroke-opacity="1" stroke-width="1" stroke-linecap="butt" stroke-linejoin="miter" stroke-dasharray="none" fill="#FFFFFF" fill-opacity="1" filter="url(#shadow1)" /><text x="364.403869628906" y="263.6335978508" font-size="12" fill="#000000" fill-opacity="1" font-family="Lucida Grande" font-weight="normal" font-style="normal">Git repo:</text><text x="372.542541503906" y="278.6335978508" font-size="12" fill="#000000" fill-opacity="1" font-family="Lucida Grande" font-weight="normal" font-style="normal">pages</text><ellipse cx="387.774954627949" cy="243.2" rx="41.4664246823956" ry="6.40000000000001" opacity="1" stroke="#000000" stroke-opacity="1" stroke-width="1" stroke-linecap="butt" stroke-linejoin="miter" stroke-dasharray="none" fill="#FFFFFF" fill-opacity="1" filter="url(#shadow1)" /></g></g></g><text x="-40.0058460235596" y="241.93803358078" font-size="12" fill="#000000" fill-opacity="1" font-family="Gotham-Book" font-weight="normal" font-style="normal">Add media,</text><g><path d="M346.308529945554 160 L346.308529945554 188.8 Q356.675136116152 198.4 367.041742286751 198.4 C377.40834845735 198.4 398.141560798548 188.8 408.508166969147 188.8 Q418.874773139746 188.8 429.241379310345 193.6 L429.241379310345 160 Z " opacity="1" stroke="#000000" stroke-opacity="1" stroke-width="1" stroke-linecap="butt" stroke-linejoin="miter" stroke-dasharray="none" fill="#FFFFFF" fill-opacity="1" filter="url(#shadow1)" /><text x="379.436096191406" y="184.096878051758" font-size="12" fill="#000000" fill-opacity="1" font-family="Arial" font-weight="normal" font-style="normal">Site</text></g><line x1="291.019963702359" y1="179.199998982747" x2="334.135987668267" y2="179.19999807613" marker-end="url(#marker4)" opacity="1" stroke="#000000" stroke-opacity="1" stroke-width="1" stroke-linecap="butt" stroke-linejoin="miter" stroke-dasharray="none" /><path d="M429.241379310345 262.4 L429.241379310345 262.4 C440.241387413288 262.4 449.241394042969 253.399993370319 449.241394042969 242.399985267376 L449.241394042969 199.200011680866 C449.241394042969 188.200003577923 440.241387413288 179.199996948242 429.241379310345 179.199996948242 L429.241379310345 179.199996948242" opacity="1" stroke="#000000" stroke-opacity="1" stroke-width="1" stroke-linecap="butt" stroke-linejoin="miter" stroke-dasharray="16,4" fill-opacity="0" /></g><rect x="-112" y="144" width="576" height="160" opacity="1" stroke="#FFFFFF" stroke-opacity="1" stroke-width="1" stroke-linecap="butt" stroke-linejoin="miter" stroke-dasharray="none" fill-opacity="0" /></g></svg>