<?xml version="1.0"?>
<svg version="1.1" xmlns="http://www.w3.org/2000/svg" xmlns:xlink="http://www.w3.org/1999/xlink" width="100" height="100">
    <desc iVinci="yes" version="4.4" gridStep="20" showGrid="no" snapToGrid="no" codePlatform="0"/>
    <g id="Layer1">
        <g id="Shape1">
            <desc type="0" basicInfo-basicType="0" basicInfo-roundedRectRadius="12" basicInfo-polygonSides="6" basicInfo-starPoints="5" bounding="rect(-38.773,-39.609,77.546,79.218)" text="" font-familyName="" font-pixelSize="20" font-bold="0" font-underline="0" font-alignment="1" strokeStyle="0" markerStart="0" markerEnd="0" shadowEnabled="0" shadowOffsetX="0" shadowOffsetY="2" shadowBlur="4" shadowOpacity="160" blurEnabled="0" blurRadius="4" transform="matrix(1,0,0,1,50,50)" pers-center="0,0" pers-size="0,0" pers-start="0,0" pers-end="0,0" locked="0" mesh="" flag=""/>
            <path id="shapePath1" d="M56.774,10.391 C39.095,10.391 24.773,24.72 24.773,42.391 C24.773,48.435 26.449,54.086 29.361,58.908 L13.846,74.423 L13.9,74.477 C12.244,76.062 11.227,78.312 11.227,80.855 C11.226,85.768 15.14,89.61 20.048,89.609 C22.555,89.608 24.797,88.605 26.397,86.973 L26.436,87.012 L42.444,71.003 C46.756,73.166 51.62,74.391 56.774,74.391 C74.454,74.391 88.773,60.064 88.773,42.391 C88.773,24.72 74.453,10.391 56.774,10.391 M56.968,61.808 C45.918,61.808 36.967,52.854 36.967,41.808 C36.967,30.764 45.918,21.808 56.968,21.808 C68.018,21.808 76.967,30.763 76.967,41.808 C76.968,52.854 68.018,61.808 56.968,61.808 " style="stroke:none;fill-rule:nonzero;fill:#ffffff;fill-opacity:1;"/>
        </g>
    </g>
</svg>
