<?xml version="1.0" encoding="utf-8"?>
<!-- Generator: Adobe Illustrator 19.2.1, SVG Export Plug-In . SVG Version: 6.00 Build 0)  -->
<!DOCTYPE svg PUBLIC "-//W3C//DTD SVG 1.1//EN" "http://www.w3.org/Graphics/SVG/1.1/DTD/svg11.dtd">
<svg version="1.1" id="Layer_1" xmlns="http://www.w3.org/2000/svg" xmlns:xlink="http://www.w3.org/1999/xlink" x="0px" y="0px"
	 viewBox="0 0 33.7 20.3" style="enable-background:new 0 0 33.7 20.3;" xml:space="preserve">
<style type="text/css">
	.st0{fill:#58595B;}
	.st1{fill:#58595B;stroke:#F1F1F2;stroke-width:0.6731;stroke-miterlimit:10;}
</style>
<g>
	<g>
		<path class="st0" d="M15.9,16.1c0,0,0-1.1-0.1-1.7c-0.1-0.4-0.7-1-3.3-2c-2.6-1-2.5-0.5-2.5-2.3c0-1.1,0.6-0.5,1-2.7
			c0.1-0.9,0.3-0.3,0.6-1.7c0.2-0.7-0.1-0.8-0.1-1.1c0-0.3,0.1-0.6,0.1-1.4c0.1-0.9-0.7-3.2-3.6-3.2S4.2,2.5,4.3,3.3
			c0.1,0.7,0.1,1,0.1,1.4c0,0.3-0.2,0.4-0.1,1.1c0.3,1.4,0.4,0.8,0.6,1.7c0.4,2.2,1,1.5,1,2.7c0,1.8,0.2,1.3-2.4,2.3
			c-2.7,1-3.3,1.6-3.3,2C0,15,0,16.1,0,16.1h7.9H15.9z"/>
		<path class="st0" d="M33.7,16.1c0,0,0-1.1-0.1-1.7c-0.1-0.5-0.7-1-3.3-2c-2.6-1-2.4-0.5-2.4-2.3c0-1.1,0.6-0.5,1-2.7
			c0.1-0.9,0.3-0.3,0.6-1.7c0.2-0.7-0.1-0.8-0.1-1.1c0-0.3,0.1-0.6,0.1-1.3c0.1-0.9-0.7-3.2-3.6-3.2c-2.9,0-3.7,2.3-3.6,3.2
			c0.1,0.7,0.1,1,0.1,1.4c0,0.3-0.2,0.4-0.1,1.1c0.3,1.4,0.4,0.8,0.6,1.7c0.4,2.2,1,1.5,1,2.7c0,1.8,0.2,1.3-2.5,2.3
			c-2.7,1-3.3,1.6-3.3,2c-0.1,0.6-0.1,1.7-0.1,1.7h7.9H33.7z"/>
		<path class="st1" d="M25.8,16.8c-0.1-2.5-2.2-2.4-2.2-2.4c-4.9-0.5-4.5-1.7-4.5-1.7v-0.4c2.3,0.2,3.3-0.4,3.3-0.4
			c-0.8-0.4-1.1-5.1-1.1-5.1c0.1-3.3-1.5-3.5-1.5-3.5s-0.7-1.7-3.2-1.3c0,0-1.5-0.3-2.8,0.9c0,0-1.4,0.8-1.4,3.9
			c0,0-0.1,4.6-0.8,5.1c0,0,1,0.6,3.3,0.4v0.4c0,0,0.3,1.2-4.5,1.7c0,0-2.1,0-2.2,2.4L8.2,20H17h0.2H26L25.8,16.8z"/>
	</g>
</g>
</svg>
