<?xml version="1.0" encoding="utf-8"?>
<!-- Generator: Adobe Illustrator 19.2.1, SVG Export Plug-In . SVG Version: 6.00 Build 0)  -->
<!DOCTYPE svg PUBLIC "-//W3C//DTD SVG 1.1//EN" "http://www.w3.org/Graphics/SVG/1.1/DTD/svg11.dtd">
<svg version="1.1" id="Layer_1" xmlns="http://www.w3.org/2000/svg" xmlns:xlink="http://www.w3.org/1999/xlink" x="0px" y="0px"
	 viewBox="0 0 19.7 24" style="enable-background:new 0 0 19.7 24;" xml:space="preserve">
<style type="text/css">
	.st0{fill:#58595B;}
</style>
<g>
	<path id="reporting_x5F_and_x5F_analytics_1_" class="st0" d="M16.9,15.3H5.4V16h11.5V15.3z M16.9,17.1H5.4v0.7h11.5V17.1z
		 M16.9,18.9H5.4v0.7h11.5V18.9z M19.7,2.3V24h-0.5H2.8H2.3V2.3H19.7z M18.7,3.3H3.3v19.1h15.4V3.3z"/>
	<g>
		<path class="st0" d="M12.4,9.1H5.8C5.5,9.1,5.4,9,5.4,8.7V6.5c0-0.2,0.2-0.4,0.4-0.4h6.6c0.2,0,0.4,0.2,0.4,0.4v2.3
			C12.8,9,12.6,9.1,12.4,9.1z"/>
		<path class="st0" d="M12.4,13.5H5.8c-0.2,0-0.4-0.2-0.4-0.4v-2.3c0-0.2,0.2-0.4,0.4-0.4h6.6c0.2,0,0.4,0.2,0.4,0.4v2.3
			C12.8,13.4,12.6,13.5,12.4,13.5z"/>
	</g>
	<polygon class="st0" points="2.4,20.1 1,20.1 1,1 16.4,1 16.4,2.4 17.4,2.4 17.4,0 0,0 0,21.7 0.5,21.7 2.4,21.7 	"/>
</g>
</svg>
