<svg id="Layer_1" data-name="Layer 1" xmlns="http://www.w3.org/2000/svg" viewBox="0 0 31.12 30"><defs><style>.cls-1{fill:#0195be;}</style></defs><title>help-index</title><path class="cls-1" d="M30.26,14.27,22.76.77A1.5,1.5,0,0,0,21.45,0h-12A1.5,1.5,0,0,0,8.14.77L.64,14.27A1.49,1.49,0,0,0,.45,15V27a3,3,0,0,0,3,3h24a3,3,0,0,0,3-3V15A1.49,1.49,0,0,0,30.26,14.27ZM10.12,1.5H20.79l6.66,12h-6.3c-.53,0-.93.8-1.2,1.25L18.17,18H12.74L11,15c-.27-.45-.67-1.5-1.2-1.5H3.45Zm17.33,27H3.38A1.43,1.43,0,0,1,2,27.07V15H8.9l2.26,3.77a1.5,1.5,0,0,0,1.29.73h6a1.5,1.5,0,0,0,1.29-.73L22,15H29V27A1.5,1.5,0,0,1,27.45,28.5Z"/><rect class="cls-1" x="9.45" y="10.88" width="12" height="0.75"/><rect class="cls-1" x="10.95" y="7.88" width="9" height="0.75"/><rect class="cls-1" x="12.45" y="4.88" width="6" height="0.75"/></svg>