<!DOCTYPE svg PUBLIC "-//W3C//DTD SVG 1.1//EN" "http://www.w3.org/Graphics/SVG/1.1/DTD/svg11.dtd">
<svg xmlns="http://www.w3.org/2000/svg" xmlns:xlink="http://www.w3.org/1999/xlink" version="1.1" id="Layer_1" x="0px" y="0px" viewBox="296.019 385.99 20 20" enable-background="new 296.019 385.99 20 20" xml:space="preserve">
<path fill="#FFFFFF" d="M298.172,388.145c-2.871,2.871-2.871,7.527,0,10.398c2.454,2.454,6.209,2.809,9.042,1.069l5.948,5.948  c0.574,0.574,1.506,0.574,2.079,0l0.347-0.347c0.574-0.574,0.574-1.505,0-2.08l-5.948-5.948c1.739-2.833,1.384-6.588-1.069-9.041  C305.699,385.273,301.043,385.273,298.172,388.145z M307.705,397.676c-2.389,2.389-6.276,2.389-8.665,0  c-2.389-2.389-2.389-6.276,0-8.665c2.389-2.389,6.276-2.389,8.665,0C310.094,391.4,310.094,395.288,307.705,397.676z"/>
</svg>