<svg id="Layer_1" data-name="Layer 1" xmlns="http://www.w3.org/2000/svg" viewBox="0 0 19.07 19.93"><defs><style>.cls-1{fill:#0094bd;}</style></defs><title>search_blue</title><path id="analyze" class="cls-1" d="M18.28,17.25l-5.75-5.86a7.11,7.11,0,0,0,1-3.7A6.8,6.8,0,0,0,6.91.76,6.8,6.8,0,0,0,.26,7.69a6.8,6.8,0,0,0,6.65,6.93,6.41,6.41,0,0,0,3.88-1.31l5.71,5.83a1.23,1.23,0,0,0,1.79,0A1.36,1.36,0,0,0,18.28,17.25ZM6.91,12.7a4.92,4.92,0,0,1-4.81-5,4.92,4.92,0,0,1,4.81-5,4.92,4.92,0,0,1,4.81,5,5.1,5.1,0,0,1-1.34,3.47A4.68,4.68,0,0,1,6.91,12.7Z"/></svg>