<svg id="Layer_1" data-name="Layer 1" xmlns="http://www.w3.org/2000/svg" viewBox="0 0 22.53 21.76"><defs><style>.cls-1{fill:#dad8d6;}</style></defs><title>star-0</title><path class="cls-1" d="M4.94,21.11a.5.5,0,0,1-.49-.59L5.75,13.7.69,8.95A.5.5,0,0,1,1,8.09l6.88-.87,3-6.27a.5.5,0,0,1,.45-.29h0a.5.5,0,0,1,.45.29l3,6.27,6.88.87a.5.5,0,0,1,.28.86L16.78,13.7l1.3,6.81a.5.5,0,0,1-.73.53l-6.08-3.34L5.18,21A.5.5,0,0,1,4.94,21.11ZM2.15,8.95l4.48,4.21a.5.5,0,0,1,.15.46l-1.15,6,5.39-3a.5.5,0,0,1,.48,0l5.39,3-1.15-6a.5.5,0,0,1,.15-.46l4.48-4.21-6.1-.77a.5.5,0,0,1-.39-.28L11.26,2.32,8.64,7.89a.5.5,0,0,1-.39.28Z"/></svg>