{
  "title" : "",
  "description" : "",
  "author" : "",
  "width" : 1920.0,
  "height" : 1080.0,
  "version" : "2.0",
  "editRate" : 30,
  "authoringClientName" :  {
    "name" : "Camtasia",
    "platform" : "Mac",
    "version" : "2018.0.7"
  },
  "sourceBin" : [
    {
      "id" : 1,
      "src" : "./media/1543501308.069342/Training Video Background.png",
      "rect" : [0, 0, 1920, 1080],
      "lastMod" : "20160414T183844",
      "sourceTracks" : [
        {
          "range" : [0, 1],
          "type" : 1,
          "editRate" : 600,
          "trackRect" : [0, 0, 1920, 1080],
          "sampleRate" : 0,
          "bitDepth" : 0,
          "numChannels" : 0,
          "metaData" : ""
        }
      ]
    },
    {
      "id" : 2,
      "src" : "./media/1543501308.069799/bc-logo-bumper.mov",
      "rect" : [0, 0, 1920, 1080],
      "lastMod" : "20180604T193646",
      "sourceTracks" : [
        {
          "range" : [0, 80],
          "type" : 0,
          "editRate" : 24,
          "trackRect" : [0, 0, 1920, 1080],
          "sampleRate" : 0,
          "bitDepth" : 0,
          "numChannels" : 0,
          "metaData" : ""
        }
      ]
    },
    {
      "id" : 3,
      "src" : "./media/1543501308.070153/vc-logo-ondark.png",
      "rect" : [0, 0, 1025, 196],
      "lastMod" : "20180531T191358",
      "sourceTracks" : [
        {
          "range" : [0, 1],
          "type" : 1,
          "editRate" : 600,
          "trackRect" : [0, 0, 1025, 196],
          "sampleRate" : 0,
          "bitDepth" : 0,
          "numChannels" : 0,
          "metaData" : ""
        }
      ]
    },
    {
      "id" : 4,
      "src" : "./media/1543501308.070478/Open Hand Project - Techy.mp3",
      "rect" : [0, 0, 0, 0],
      "lastMod" : "20180531T181754",
      "sourceTracks" : [
        {
          "range" : [0, 5954688],
          "type" : 2,
          "editRate" : 48000,
          "trackRect" : [0, 0, 0, 0],
          "sampleRate" : 48000,
          "bitDepth" : 0,
          "numChannels" : 2,
          "metaData" : ""
        }
      ]
    },
    {
      "id" : 5,
      "src" : "./recordings/1544805181.355348/Rec 12-14-2018.trec",
      "rect" : [0, 0, 1920, 1080],
      "lastMod" : "20181214T154448",
      "sourceTracks" : [
        {
          "range" : [0, 5446],
          "type" : 0,
          "editRate" : 30,
          "trackRect" : [0, 0, 1920, 1080],
          "sampleRate" : 0,
          "bitDepth" : 0,
          "numChannels" : 0,
          "metaData" : "2b7b6a01-7a1f-11e2-83d0-0017f200be7f;2b7b6af0-7a1f-11e2-83d0-0017f200be7f;2b7b6af1-7a1f-11e2-83d0-0017f200be7f;2b7b6af2-7a1f-11e2-83d0-0017f200be7f;2b7b6af3-7a1f-11e2-83d0-0017f200be7f;2b7b6af5-7a1f-11e2-83d0-0017f200be7f;2b7b6af6-7a1f-11e2-83d0-0017f200be7f;2b7b6af7-7a1f-11e2-83d0-0017f200be7f;2b7b6af8-7a1f-11e2-83d0-0017f200be7f;2b7b6af9-7a1f-11e2-83d0-0017f200be7f;2b7b6afa-7a1f-11e2-83d0-0017f200be7f;2b7b6afb-7a1f-11e2-83d0-0017f200be7f;2b7b6afc-7a1f-11e2-83d0-0017f200be7f;"
        },
        {
          "range" : [0, 8033280],
          "type" : 2,
          "editRate" : 44100,
          "trackRect" : [0, 0, 0, 0],
          "sampleRate" : 44100,
          "bitDepth" : 16,
          "numChannels" : 2,
          "metaData" : ""
        }
      ]
    },
    {
      "id" : 6,
      "src" : "./recordings/1544805181.355974/Rec 12-14-2018 1.trec",
      "rect" : [0, 0, 1920, 1080],
      "lastMod" : "20181214T155345",
      "sourceTracks" : [
        {
          "range" : [0, 1979],
          "type" : 0,
          "editRate" : 30,
          "trackRect" : [0, 0, 1920, 1080],
          "sampleRate" : 0,
          "bitDepth" : 0,
          "numChannels" : 0,
          "metaData" : "2b7b6a01-7a1f-11e2-83d0-0017f200be7f;2b7b6af0-7a1f-11e2-83d0-0017f200be7f;2b7b6af1-7a1f-11e2-83d0-0017f200be7f;2b7b6af2-7a1f-11e2-83d0-0017f200be7f;2b7b6af3-7a1f-11e2-83d0-0017f200be7f;2b7b6af5-7a1f-11e2-83d0-0017f200be7f;2b7b6af6-7a1f-11e2-83d0-0017f200be7f;2b7b6af7-7a1f-11e2-83d0-0017f200be7f;2b7b6af8-7a1f-11e2-83d0-0017f200be7f;2b7b6af9-7a1f-11e2-83d0-0017f200be7f;2b7b6afa-7a1f-11e2-83d0-0017f200be7f;2b7b6afb-7a1f-11e2-83d0-0017f200be7f;2b7b6afc-7a1f-11e2-83d0-0017f200be7f;"
        },
        {
          "range" : [0, 2919424],
          "type" : 2,
          "editRate" : 44100,
          "trackRect" : [0, 0, 0, 0],
          "sampleRate" : 44100,
          "bitDepth" : 16,
          "numChannels" : 2,
          "metaData" : ""
        }
      ]
    },
    {
      "id" : 7,
      "src" : "./recordings/1544805181.356239/Rec 12-14-2018 4.trec",
      "rect" : [0, 0, 1920, 1080],
      "lastMod" : "20181214T161354",
      "sourceTracks" : [
        {
          "range" : [0, 4002],
          "type" : 0,
          "editRate" : 30,
          "trackRect" : [0, 0, 1920, 1080],
          "sampleRate" : 0,
          "bitDepth" : 0,
          "numChannels" : 0,
          "metaData" : "2b7b6a01-7a1f-11e2-83d0-0017f200be7f;2b7b6af0-7a1f-11e2-83d0-0017f200be7f;2b7b6af1-7a1f-11e2-83d0-0017f200be7f;2b7b6af2-7a1f-11e2-83d0-0017f200be7f;2b7b6af3-7a1f-11e2-83d0-0017f200be7f;2b7b6af5-7a1f-11e2-83d0-0017f200be7f;2b7b6af6-7a1f-11e2-83d0-0017f200be7f;2b7b6af7-7a1f-11e2-83d0-0017f200be7f;2b7b6af8-7a1f-11e2-83d0-0017f200be7f;2b7b6af9-7a1f-11e2-83d0-0017f200be7f;2b7b6afa-7a1f-11e2-83d0-0017f200be7f;2b7b6afb-7a1f-11e2-83d0-0017f200be7f;2b7b6afc-7a1f-11e2-83d0-0017f200be7f;"
        },
        {
          "range" : [0, 5898240],
          "type" : 2,
          "editRate" : 44100,
          "trackRect" : [0, 0, 0, 0],
          "sampleRate" : 44100,
          "bitDepth" : 16,
          "numChannels" : 2,
          "metaData" : ""
        }
      ]
    },
    {
      "id" : 8,
      "src" : "./recordings/1544805953.713863/Rec 12-14-2018 7.trec",
      "rect" : [0, 0, 1920, 1080],
      "lastMod" : "20181214T163815",
      "sourceTracks" : [
        {
          "range" : [0, 1970],
          "type" : 0,
          "editRate" : 30,
          "trackRect" : [0, 0, 1920, 1080],
          "sampleRate" : 0,
          "bitDepth" : 0,
          "numChannels" : 0,
          "metaData" : "2b7b6a01-7a1f-11e2-83d0-0017f200be7f;2b7b6af0-7a1f-11e2-83d0-0017f200be7f;2b7b6af1-7a1f-11e2-83d0-0017f200be7f;2b7b6af2-7a1f-11e2-83d0-0017f200be7f;2b7b6af3-7a1f-11e2-83d0-0017f200be7f;2b7b6af5-7a1f-11e2-83d0-0017f200be7f;2b7b6af6-7a1f-11e2-83d0-0017f200be7f;2b7b6af7-7a1f-11e2-83d0-0017f200be7f;2b7b6af8-7a1f-11e2-83d0-0017f200be7f;2b7b6af9-7a1f-11e2-83d0-0017f200be7f;2b7b6afa-7a1f-11e2-83d0-0017f200be7f;2b7b6afb-7a1f-11e2-83d0-0017f200be7f;2b7b6afc-7a1f-11e2-83d0-0017f200be7f;"
        },
        {
          "range" : [0, 2905088],
          "type" : 2,
          "editRate" : 44100,
          "trackRect" : [0, 0, 0, 0],
          "sampleRate" : 44100,
          "bitDepth" : 16,
          "numChannels" : 2,
          "metaData" : ""
        }
      ]
    },
    {
      "id" : 9,
      "src" : "./recordings/1544815440.544257/Rec 12-14-2018 8.trec",
      "rect" : [0, 0, 1920, 1080],
      "lastMod" : "20181214T190356",
      "sourceTracks" : [
        {
          "range" : [0, 3041],
          "type" : 0,
          "editRate" : 30,
          "trackRect" : [0, 0, 1920, 1080],
          "sampleRate" : 0,
          "bitDepth" : 0,
          "numChannels" : 0,
          "metaData" : "2b7b6a01-7a1f-11e2-83d0-0017f200be7f;2b7b6af0-7a1f-11e2-83d0-0017f200be7f;2b7b6af1-7a1f-11e2-83d0-0017f200be7f;2b7b6af2-7a1f-11e2-83d0-0017f200be7f;2b7b6af3-7a1f-11e2-83d0-0017f200be7f;2b7b6af5-7a1f-11e2-83d0-0017f200be7f;2b7b6af6-7a1f-11e2-83d0-0017f200be7f;2b7b6af7-7a1f-11e2-83d0-0017f200be7f;2b7b6af8-7a1f-11e2-83d0-0017f200be7f;2b7b6af9-7a1f-11e2-83d0-0017f200be7f;2b7b6afa-7a1f-11e2-83d0-0017f200be7f;2b7b6afb-7a1f-11e2-83d0-0017f200be7f;2b7b6afc-7a1f-11e2-83d0-0017f200be7f;"
        },
        {
          "range" : [0, 4482048],
          "type" : 2,
          "editRate" : 44100,
          "trackRect" : [0, 0, 0, 0],
          "sampleRate" : 44100,
          "bitDepth" : 16,
          "numChannels" : 2,
          "metaData" : ""
        }
      ]
    },
    {
      "id" : 10,
      "src" : "./recordings/1544817747.667638/Rec 12-14-2018 11.trec",
      "rect" : [0, 0, 1920, 1080],
      "lastMod" : "20181214T193454",
      "sourceTracks" : [
        {
          "range" : [0, 3313],
          "type" : 0,
          "editRate" : 30,
          "trackRect" : [0, 0, 1920, 1080],
          "sampleRate" : 0,
          "bitDepth" : 0,
          "numChannels" : 0,
          "metaData" : "2b7b6a01-7a1f-11e2-83d0-0017f200be7f;2b7b6af0-7a1f-11e2-83d0-0017f200be7f;2b7b6af1-7a1f-11e2-83d0-0017f200be7f;2b7b6af2-7a1f-11e2-83d0-0017f200be7f;2b7b6af3-7a1f-11e2-83d0-0017f200be7f;2b7b6af5-7a1f-11e2-83d0-0017f200be7f;2b7b6af6-7a1f-11e2-83d0-0017f200be7f;2b7b6af7-7a1f-11e2-83d0-0017f200be7f;2b7b6af8-7a1f-11e2-83d0-0017f200be7f;2b7b6af9-7a1f-11e2-83d0-0017f200be7f;2b7b6afa-7a1f-11e2-83d0-0017f200be7f;2b7b6afb-7a1f-11e2-83d0-0017f200be7f;2b7b6afc-7a1f-11e2-83d0-0017f200be7f;"
        },
        {
          "range" : [0, 4882432],
          "type" : 2,
          "editRate" : 44100,
          "trackRect" : [0, 0, 0, 0],
          "sampleRate" : 44100,
          "bitDepth" : 16,
          "numChannels" : 2,
          "metaData" : ""
        }
      ]
    }
  ],
  "timeline" : {
    "id" : 11,
    "sceneTrack" : {
      "scenes" : [
        {
          "duration" : 351.233333333333,
          "title" : "",
          "type" : "",
          "csml" : {
            "tracks" : [
              {
                "trackIndex" : 0,
                "medias" : [
                  {
                    "id" : 12,
                    "_type" : "IMFile",
                    "src" : 1,
                    "trackNumber" : 0,
                    "trimStartSum" : 0,
                    "attributes" : {
                      "ident" : "Training Video Background"
                    },
                    "parameters" : {
                      "translation0" : {
                        "type" : "double",
                        "defaultValue" : 0.0,
                        "interp" : "linr"
                      },
                      "translation1" : {
                        "type" : "double",
                        "defaultValue" : 0.0,
                        "interp" : "linr"
                      },
                      "translation2" : {
                        "type" : "double",
                        "defaultValue" : 0.0,
                        "interp" : "linr"
                      },
                      "rotation0" : {
                        "type" : "double",
                        "defaultValue" : 0.0,
                        "interp" : "linr"
                      },
                      "rotation1" : {
                        "type" : "double",
                        "defaultValue" : 0.0,
                        "interp" : "linr"
                      },
                      "rotation2" : {
                        "type" : "double",
                        "defaultValue" : 0.0,
                        "interp" : "linr"
                      },
                      "shear0" : {
                        "type" : "double",
                        "defaultValue" : 0.0,
                        "interp" : "linr"
                      },
                      "shear1" : {
                        "type" : "double",
                        "defaultValue" : 0.0,
                        "interp" : "linr"
                      },
                      "shear2" : {
                        "type" : "double",
                        "defaultValue" : 0.0,
                        "interp" : "linr"
                      },
                      "scale0" : {
                        "type" : "double",
                        "defaultValue" : 1.0,
                        "interp" : "linr"
                      },
                      "scale1" : {
                        "type" : "double",
                        "defaultValue" : 1.0,
                        "interp" : "linr"
                      },
                      "scale2" : {
                        "type" : "double",
                        "defaultValue" : 1.0,
                        "interp" : "linr"
                      },
                      "anchor0" : {
                        "type" : "double",
                        "defaultValue" : 0.0,
                        "interp" : "linr"
                      },
                      "anchor1" : {
                        "type" : "double",
                        "defaultValue" : 0.0,
                        "interp" : "linr"
                      },
                      "anchor2" : {
                        "type" : "double",
                        "defaultValue" : 0.0,
                        "interp" : "linr"
                      }
                    },
                    "effects" : [

                    ],
                    "start" : 0,
                    "duration" : 90,
                    "mediaStart" : 0,
                    "mediaDuration" : 1,
                    "scalar" : 1,
                    "metadata" : {
                      "clipSpeedAttribute" : false,
                      "default-scale" : "1",
                      "effectApplied" : "none"
                    },
                    "animationTracks" : {

                    }
                  }
                ]
              },
              {
                "trackIndex" : 1,
                "medias" : [
                  {
                    "id" : 13,
                    "_type" : "Callout",
                    "def" : {
                      "kind" : "text-rectangle",
                      "shape" : "",
                      "style" : "",
                      "horizontal-alignment" : "center",
                      "vertical-alignment" : "center",
                      "textAttributes" : {
                        "type" : "textAttributeList",
                        "keyframes" : [
                          {
                            "endTime" : 0,
                            "time" : 0,
                            "value" : null,
                            "duration" : 0
                          }
                        ]
                      },
                      "children" : [
                        {
                          "kind" : "text-rectangle-object",
                          "shape" : "",
                          "style" : "",
                          "horizontal-alignment" : "center",
                          "vertical-alignment" : "center",
                          "textAttributes" : {
                            "type" : "textAttributeList",
                            "keyframes" : [
                              {
                                "endTime" : 0,
                                "time" : 0,
                                "value" : null,
                                "duration" : 0
                              }
                            ]
                          },
                          "children" : [
                            {
                              "kind" : "ellipse",
                              "shape" : "",
                              "style" : "",
                              "center-x" : 0.0,
                              "center-y" : 0.0,
                              "radius-x" : 284.924098878612,
                              "radius-y" : 50.0,
                              "textrect-ratio" : 0.8,
                              "horizontal-alignment" : "center",
                              "vertical-alignment" : "center",
                              "textAttributes" : {
                                "type" : "textAttributeList",
                                "keyframes" : [
                                  {
                                    "endTime" : 0,
                                    "time" : 0,
                                    "value" : null,
                                    "duration" : 0
                                  }
                                ]
                              },
                              "children" : [
                                {
                                  "kind" : "rtf-textbox",
                                  "shape" : "",
                                  "style" : "",
                                  "horizontal-alignment" : "center",
                                  "text" : "{\\rtf1\\ansi\\ansicpg1252\\cocoartf1504\\cocoasubrtf830\n{\\fonttbl\\f0\\fswiss\\fcharset0 ArialMT;}\n{\\colortbl;\\red255\\green255\\blue255;}\n{\\*\\expandedcolortbl;;}\n\\pard\\tx560\\tx1120\\tx1680\\tx2240\\tx2800\\tx3360\\tx3920\\tx4480\\tx5040\\tx5600\\tx6160\\tx6720\\pardirnatural\\partightenfactor0\n\n\\f0\\b\\fs64 \\cf1 Introduction to the \\\nCMS API}",
                                  "vertical-alignment" : "top",
                                  "textAttributes" : {
                                    "type" : "textAttributeList",
                                    "keyframes" : [
                                      {
                                        "endTime" : 0,
                                        "time" : 0,
                                        "value" : null,
                                        "duration" : 0
                                      }
                                    ]
                                  }
                                }
                              ]
                            }
                          ]
                        }
                      ]
                    },
                    "attributes" : {
                      "autoRotateText" : true
                    },
                    "parameters" : {
                      "translation0" : {
                        "type" : "double",
                        "defaultValue" : 0.4327420515529,
                        "interp" : "linr"
                      },
                      "translation1" : {
                        "type" : "double",
                        "defaultValue" : 0.0,
                        "interp" : "linr"
                      },
                      "translation2" : {
                        "type" : "double",
                        "defaultValue" : 0.0,
                        "interp" : "linr"
                      },
                      "rotation0" : {
                        "type" : "double",
                        "defaultValue" : 0.0,
                        "interp" : "linr"
                      },
                      "rotation1" : {
                        "type" : "double",
                        "defaultValue" : 0.0,
                        "interp" : "linr"
                      },
                      "rotation2" : {
                        "type" : "double",
                        "defaultValue" : 0.0,
                        "interp" : "linr"
                      },
                      "shear0" : {
                        "type" : "double",
                        "defaultValue" : 0.0,
                        "interp" : "linr"
                      },
                      "shear1" : {
                        "type" : "double",
                        "defaultValue" : 0.0,
                        "interp" : "linr"
                      },
                      "shear2" : {
                        "type" : "double",
                        "defaultValue" : 0.0,
                        "interp" : "linr"
                      },
                      "scale0" : {
                        "type" : "double",
                        "defaultValue" : 3.57359793115371,
                        "interp" : "linr"
                      },
                      "scale1" : {
                        "type" : "double",
                        "defaultValue" : 3.57359793115371,
                        "interp" : "linr"
                      },
                      "scale2" : {
                        "type" : "double",
                        "defaultValue" : 1.0,
                        "interp" : "linr"
                      },
                      "anchor0" : {
                        "type" : "double",
                        "defaultValue" : 0.0,
                        "interp" : "linr"
                      },
                      "anchor1" : {
                        "type" : "double",
                        "defaultValue" : 0.0,
                        "interp" : "linr"
                      },
                      "anchor2" : {
                        "type" : "double",
                        "defaultValue" : 0.0,
                        "interp" : "linr"
                      }
                    },
                    "effects" : [

                    ],
                    "start" : 0,
                    "duration" : 90,
                    "mediaStart" : 0,
                    "mediaDuration" : 90,
                    "scalar" : 1,
                    "metadata" : {
                      "clipSpeedAttribute" : false,
                      "effectApplied" : "none"
                    },
                    "animationTracks" : {

                    }
                  },
                  {
                    "id" : 14,
                    "_type" : "StitchedMedia",
                    "minMediaStart" : 0,
                    "attributes" : {
                      "ident" : "Rec 12-14-2018",
                      "gain" : 1.0,
                      "mixToMono" : false
                    },
                    "parameters" : {
                      "volume" : 1.0,
                      "cursorOpacity" : 1.0,
                      "cursorScale" : 1.0
                    },
                    "medias" : [
                        {
                          "id" : 15,
                          "_type" : "UnifiedMedia",
                          "video" : 
                              {
                                "id" : 16,
                                "_type" : "ScreenVMFile",
                                "src" : 5,
                                "trackNumber" : 0,
                                "attributes" : {
                                  "ident" : "Rec 12-14-2018"
                                },
                                "parameters" : {
                                  "cursorScale" : {
                                    "type" : "double",
                                    "defaultValue" : 0.0,
                                    "interp" : "linr"
                                  },
                                  "cursorOpacity" : {
                                    "type" : "double",
                                    "defaultValue" : 0.0,
                                    "interp" : "linr"
                                  }
                                },
                                "effects" : [

                                ],
                                "start" : 0,
                                "duration" : 1592,
                                "mediaStart" : 0,
                                "mediaDuration" : 1592,
                                "scalar" : 1,
                                "animationTracks" : {

                                }
                              },
                          "audio" : 
                              {
                                "id" : 17,
                                "_type" : "AMFile",
                                "src" : 5,
                                "trackNumber" : 1,
                                "attributes" : {
                                  "ident" : "",
                                  "sampleRate" : 44100,
                                  "bitDepth" : 16,
                                  "gain" : 1.0,
                                  "mixToMono" : false
                                },
                                  "channelNumber" : "0,1",
                                "effects" : [

                                ],
                                "start" : 0,
                                "duration" : 1592,
                                "mediaStart" : 0,
                                "mediaDuration" : 1592,
                                "scalar" : 1,
                                "animationTracks" : {

                                }
                              }
,
                          "start" : 0,
                          "duration" : 1592,
                          "mediaStart" : 0,
                          "mediaDuration" : 5446,
                          "scalar" : 1,
                          "metadata" : {
                            "clipSpeedAttribute" : false,
                            "default-scale" : "1",
                            "effectApplied" : "none"
                          }
                        },
                        {
                          "id" : 18,
                          "_type" : "UnifiedMedia",
                          "video" : 
                              {
                                "id" : 19,
                                "_type" : "ScreenVMFile",
                                "src" : 5,
                                "trackNumber" : 0,
                                "attributes" : {
                                  "ident" : "Rec 12-14-2018"
                                },
                                "parameters" : {
                                  "cursorScale" : {
                                    "type" : "double",
                                    "defaultValue" : 0.0,
                                    "interp" : "linr"
                                  },
                                  "cursorOpacity" : {
                                    "type" : "double",
                                    "defaultValue" : 0.0,
                                    "interp" : "linr"
                                  }
                                },
                                "effects" : [

                                ],
                                "start" : 1592,
                                "duration" : 3824,
                                "mediaStart" : 1622,
                                "mediaDuration" : 3824,
                                "scalar" : 1,
                                "animationTracks" : {

                                }
                              },
                          "audio" : 
                              {
                                "id" : 20,
                                "_type" : "AMFile",
                                "src" : 5,
                                "trackNumber" : 1,
                                "attributes" : {
                                  "ident" : "",
                                  "sampleRate" : 44100,
                                  "bitDepth" : 16,
                                  "gain" : 1.0,
                                  "mixToMono" : false
                                },
                                  "channelNumber" : "0,1",
                                "effects" : [

                                ],
                                "start" : 1592,
                                "duration" : 3824,
                                "mediaStart" : 1622,
                                "mediaDuration" : 3824,
                                "scalar" : 1,
                                "animationTracks" : {

                                }
                              }
,
                          "start" : 1592,
                          "duration" : 3824,
                          "mediaStart" : 0,
                          "mediaDuration" : 5446,
                          "scalar" : 1,
                          "metadata" : {
                            "clipSpeedAttribute" : false,
                            "default-scale" : "1",
                            "effectApplied" : "none"
                          }
                        }
                    ],
                    "effects" : [

                    ],
                    "start" : 90,
                    "duration" : 1060,
                    "mediaStart" : 538,
                    "mediaDuration" : 1060,
                    "scalar" : 1,
                    "metadata" : {
                      "clipSpeedAttribute" : false,
                      "default-scale" : "1",
                      "effectApplied" : "none"
                    },
                    "animationTracks" : {

                    }
                  },
                  {
                    "id" : 21,
                    "_type" : "StitchedMedia",
                    "minMediaStart" : 0,
                    "attributes" : {
                      "ident" : "Rec 12-14-2018",
                      "gain" : 1.0,
                      "mixToMono" : false
                    },
                    "parameters" : {
                      "volume" : 1.0,
                      "cursorOpacity" : {
                        "type" : "double",
                        "defaultValue" : 1.0,
                        "interp" : "linr"
                      },
                      "cursorScale" : {
                        "type" : "double",
                        "defaultValue" : 1.0,
                        "interp" : "linr"
                      }
                    },
                    "medias" : [
                        {
                          "id" : 22,
                          "_type" : "UnifiedMedia",
                          "video" : 
                              {
                                "id" : 23,
                                "_type" : "ScreenVMFile",
                                "src" : 5,
                                "trackNumber" : 0,
                                "attributes" : {
                                  "ident" : "Rec 12-14-2018"
                                },
                                "parameters" : {
                                  "cursorScale" : {
                                    "type" : "double",
                                    "defaultValue" : 0.0,
                                    "interp" : "linr"
                                  },
                                  "cursorOpacity" : {
                                    "type" : "double",
                                    "defaultValue" : 0.0,
                                    "interp" : "linr"
                                  }
                                },
                                "effects" : [

                                ],
                                "start" : 0,
                                "duration" : 1592,
                                "mediaStart" : 0,
                                "mediaDuration" : 1592,
                                "scalar" : 1,
                                "animationTracks" : {

                                }
                              },
                          "audio" : 
                              {
                                "id" : 24,
                                "_type" : "AMFile",
                                "src" : 5,
                                "trackNumber" : 1,
                                "attributes" : {
                                  "ident" : "",
                                  "sampleRate" : 44100,
                                  "bitDepth" : 16,
                                  "gain" : 1.0,
                                  "mixToMono" : false
                                },
                                  "channelNumber" : "0,1",
                                "effects" : [

                                ],
                                "start" : 0,
                                "duration" : 1592,
                                "mediaStart" : 0,
                                "mediaDuration" : 1592,
                                "scalar" : 1,
                                "animationTracks" : {

                                }
                              }
,
                          "start" : 0,
                          "duration" : 1592,
                          "mediaStart" : 0,
                          "mediaDuration" : 5446,
                          "scalar" : 1,
                          "metadata" : {
                            "clipSpeedAttribute" : false,
                            "default-scale" : "1",
                            "effectApplied" : "none"
                          }
                        },
                        {
                          "id" : 25,
                          "_type" : "UnifiedMedia",
                          "video" : 
                              {
                                "id" : 26,
                                "_type" : "ScreenVMFile",
                                "src" : 5,
                                "trackNumber" : 0,
                                "attributes" : {
                                  "ident" : "Rec 12-14-2018"
                                },
                                "parameters" : {
                                  "cursorScale" : {
                                    "type" : "double",
                                    "defaultValue" : 0.0,
                                    "interp" : "linr"
                                  },
                                  "cursorOpacity" : {
                                    "type" : "double",
                                    "defaultValue" : 0.0,
                                    "interp" : "linr"
                                  }
                                },
                                "effects" : [

                                ],
                                "start" : 1592,
                                "duration" : 3824,
                                "mediaStart" : 1622,
                                "mediaDuration" : 3824,
                                "scalar" : 1,
                                "animationTracks" : {

                                }
                              },
                          "audio" : 
                              {
                                "id" : 27,
                                "_type" : "AMFile",
                                "src" : 5,
                                "trackNumber" : 1,
                                "attributes" : {
                                  "ident" : "",
                                  "sampleRate" : 44100,
                                  "bitDepth" : 16,
                                  "gain" : 1.0,
                                  "mixToMono" : false
                                },
                                  "channelNumber" : "0,1",
                                "effects" : [

                                ],
                                "start" : 1592,
                                "duration" : 3824,
                                "mediaStart" : 1622,
                                "mediaDuration" : 3824,
                                "scalar" : 1,
                                "animationTracks" : {

                                }
                              }
,
                          "start" : 1592,
                          "duration" : 3824,
                          "mediaStart" : 0,
                          "mediaDuration" : 5446,
                          "scalar" : 1,
                          "metadata" : {
                            "clipSpeedAttribute" : false,
                            "default-scale" : "1",
                            "effectApplied" : "none"
                          }
                        }
                    ],
                    "effects" : [

                    ],
                    "start" : 1150,
                    "duration" : 1330,
                    "mediaStart" : 1795,
                    "mediaDuration" : 1330,
                    "scalar" : 1,
                    "metadata" : {
                      "clipSpeedAttribute" : false,
                      "default-scale" : "1",
                      "effectApplied" : "none"
                    },
                    "animationTracks" : {

                    }
                  },
                  {
                    "id" : 28,
                    "_type" : "UnifiedMedia",
                    "video" : 
                        {
                          "id" : 29,
                          "_type" : "ScreenVMFile",
                          "src" : 6,
                          "trackNumber" : 0,
                          "attributes" : {
                            "ident" : "Rec 12-14-2018 1"
                          },
                          "parameters" : {
                            "cursorScale" : {
                              "type" : "double",
                              "defaultValue" : 1.0,
                              "interp" : "linr"
                            },
                            "cursorOpacity" : {
                              "type" : "double",
                              "defaultValue" : 1.0,
                              "interp" : "linr"
                            }
                          },
                          "effects" : [

                          ],
                          "start" : 2480,
                          "duration" : 1451,
                          "mediaStart" : 274,
                          "mediaDuration" : 1451,
                          "scalar" : 1,
                          "animationTracks" : {

                          }
                        },
                    "audio" : 
                        {
                          "id" : 30,
                          "_type" : "AMFile",
                          "src" : 6,
                          "trackNumber" : 1,
                          "attributes" : {
                            "ident" : "",
                            "sampleRate" : 44100,
                            "bitDepth" : 16,
                            "gain" : 1.0,
                            "mixToMono" : false
                          },
                            "channelNumber" : "0,1",
                          "effects" : [

                          ],
                          "start" : 2480,
                          "duration" : 1451,
                          "mediaStart" : 274,
                          "mediaDuration" : 1451,
                          "scalar" : 1,
                          "animationTracks" : {

                          }
                        }
,
                    "start" : 2480,
                    "duration" : 1451,
                    "mediaStart" : 0,
                    "mediaDuration" : 1979,
                    "scalar" : 1,
                    "metadata" : {
                      "clipSpeedAttribute" : false,
                      "default-scale" : "1",
                      "effectApplied" : "none"
                    }
                  },
                  {
                    "id" : 31,
                    "_type" : "ScreenVMFile",
                    "src" : 7,
                    "trackNumber" : 0,
                    "attributes" : {
                      "ident" : "Rec 12-14-2018 4"
                    },
                    "parameters" : {
                      "cursorScale" : {
                        "type" : "double",
                        "defaultValue" : 1.0,
                        "interp" : "linr"
                      },
                      "cursorOpacity" : {
                        "type" : "double",
                        "defaultValue" : 1.0,
                        "interp" : "linr"
                      }
                    },
                    "effects" : [

                    ],
                    "start" : 3931,
                    "duration" : 292,
                    "mediaStart" : 150,
                    "mediaDuration" : 292,
                    "scalar" : 1,
                    "metadata" : {
                      "clipSpeedAttribute" : false,
                      "effectApplied" : "none"
                    },
                    "animationTracks" : {

                    }
                  },
                  {
                    "id" : 32,
                    "_type" : "StitchedMedia",
                    "minMediaStart" : 0,
                    "attributes" : {
                      "ident" : "Rec 12-14-2018 4",
                      "gain" : 1.0,
                      "mixToMono" : false
                    },
                    "parameters" : {
                      "cursorOpacity" : 1.0,
                      "cursorScale" : 1.0
                    },
                    "medias" : [
                        {
                          "id" : 33,
                          "_type" : "ScreenVMFile",
                          "src" : 7,
                          "trackNumber" : 0,
                          "attributes" : {
                            "ident" : "Rec 12-14-2018 4"
                          },
                          "parameters" : {
                            "cursorScale" : {
                              "type" : "double",
                              "defaultValue" : 0.0,
                              "interp" : "linr"
                            },
                            "cursorOpacity" : {
                              "type" : "double",
                              "defaultValue" : 0.0,
                              "interp" : "linr"
                            }
                          },
                          "effects" : [

                          ],
                          "start" : 0,
                          "duration" : 960,
                          "mediaStart" : 0,
                          "mediaDuration" : 960,
                          "scalar" : 1,
                          "metadata" : {
                            "clipSpeedAttribute" : false,
                            "effectApplied" : "none"
                          },
                          "animationTracks" : {

                          }
                        },
                        {
                          "id" : 34,
                          "_type" : "ScreenVMFile",
                          "src" : 7,
                          "trackNumber" : 0,
                          "attributes" : {
                            "ident" : "Rec 12-14-2018 4"
                          },
                          "parameters" : {
                            "cursorScale" : {
                              "type" : "double",
                              "defaultValue" : 0.0,
                              "interp" : "linr"
                            },
                            "cursorOpacity" : {
                              "type" : "double",
                              "defaultValue" : 0.0,
                              "interp" : "linr"
                            }
                          },
                          "effects" : [

                          ],
                          "start" : 960,
                          "duration" : 119,
                          "mediaStart" : 1128,
                          "mediaDuration" : 119,
                          "scalar" : 1,
                          "metadata" : {
                            "clipSpeedAttribute" : false,
                            "effectApplied" : "none"
                          },
                          "animationTracks" : {

                          }
                        },
                        {
                          "id" : 35,
                          "_type" : "ScreenVMFile",
                          "src" : 7,
                          "trackNumber" : 0,
                          "attributes" : {
                            "ident" : "Rec 12-14-2018 4"
                          },
                          "parameters" : {
                            "cursorScale" : {
                              "type" : "double",
                              "defaultValue" : 0.0,
                              "interp" : "linr"
                            },
                            "cursorOpacity" : {
                              "type" : "double",
                              "defaultValue" : 0.0,
                              "interp" : "linr"
                            }
                          },
                          "effects" : [

                          ],
                          "start" : 1079,
                          "duration" : 2425,
                          "mediaStart" : 1577,
                          "mediaDuration" : 2425,
                          "scalar" : 1,
                          "metadata" : {
                            "clipSpeedAttribute" : false,
                            "effectApplied" : "none"
                          },
                          "animationTracks" : {

                          }
                        }
                    ],
                    "effects" : [

                    ],
                    "start" : 4223,
                    "duration" : 578,
                    "mediaStart" : 652,
                    "mediaDuration" : 578,
                    "scalar" : 1,
                    "metadata" : {
                      "clipSpeedAttribute" : false,
                      "effectApplied" : "none"
                    },
                    "animationTracks" : {

                    }
                  },
                  {
                    "id" : 36,
                    "_type" : "StitchedMedia",
                    "minMediaStart" : 0,
                    "attributes" : {
                      "ident" : "Rec 12-14-2018 4",
                      "gain" : 1.0,
                      "mixToMono" : false
                    },
                    "parameters" : {
                      "cursorOpacity" : {
                        "type" : "double",
                        "defaultValue" : 1.0,
                        "interp" : "linr"
                      },
                      "cursorScale" : {
                        "type" : "double",
                        "defaultValue" : 1.0,
                        "interp" : "linr"
                      }
                    },
                    "medias" : [
                        {
                          "id" : 37,
                          "_type" : "ScreenVMFile",
                          "src" : 7,
                          "trackNumber" : 0,
                          "attributes" : {
                            "ident" : "Rec 12-14-2018 4"
                          },
                          "parameters" : {
                            "cursorScale" : {
                              "type" : "double",
                              "defaultValue" : 0.0,
                              "interp" : "linr"
                            },
                            "cursorOpacity" : {
                              "type" : "double",
                              "defaultValue" : 0.0,
                              "interp" : "linr"
                            }
                          },
                          "effects" : [

                          ],
                          "start" : 0,
                          "duration" : 960,
                          "mediaStart" : 0,
                          "mediaDuration" : 960,
                          "scalar" : 1,
                          "metadata" : {
                            "clipSpeedAttribute" : false,
                            "effectApplied" : "none"
                          },
                          "animationTracks" : {

                          }
                        },
                        {
                          "id" : 38,
                          "_type" : "ScreenVMFile",
                          "src" : 7,
                          "trackNumber" : 0,
                          "attributes" : {
                            "ident" : "Rec 12-14-2018 4"
                          },
                          "parameters" : {
                            "cursorScale" : {
                              "type" : "double",
                              "defaultValue" : 0.0,
                              "interp" : "linr"
                            },
                            "cursorOpacity" : {
                              "type" : "double",
                              "defaultValue" : 0.0,
                              "interp" : "linr"
                            }
                          },
                          "effects" : [

                          ],
                          "start" : 960,
                          "duration" : 119,
                          "mediaStart" : 1128,
                          "mediaDuration" : 119,
                          "scalar" : 1,
                          "metadata" : {
                            "clipSpeedAttribute" : false,
                            "effectApplied" : "none"
                          },
                          "animationTracks" : {

                          }
                        },
                        {
                          "id" : 39,
                          "_type" : "ScreenVMFile",
                          "src" : 7,
                          "trackNumber" : 0,
                          "attributes" : {
                            "ident" : "Rec 12-14-2018 4"
                          },
                          "parameters" : {
                            "cursorScale" : {
                              "type" : "double",
                              "defaultValue" : 0.0,
                              "interp" : "linr"
                            },
                            "cursorOpacity" : {
                              "type" : "double",
                              "defaultValue" : 0.0,
                              "interp" : "linr"
                            }
                          },
                          "effects" : [

                          ],
                          "start" : 1079,
                          "duration" : 2425,
                          "mediaStart" : 1577,
                          "mediaDuration" : 2425,
                          "scalar" : 1,
                          "metadata" : {
                            "clipSpeedAttribute" : false,
                            "effectApplied" : "none"
                          },
                          "animationTracks" : {

                          }
                        }
                    ],
                    "effects" : [

                    ],
                    "start" : 4801,
                    "duration" : 289,
                    "mediaStart" : 1230,
                    "mediaDuration" : 837,
                    "scalar" : "289/837",
                    "metadata" : {
                      "clipSpeedAttribute" : true,
                      "effectApplied" : "Clip Speed"
                    },
                    "animationTracks" : {

                    }
                  },
                  {
                    "id" : 40,
                    "_type" : "StitchedMedia",
                    "minMediaStart" : 0,
                    "attributes" : {
                      "ident" : "Rec 12-14-2018 4",
                      "gain" : 1.0,
                      "mixToMono" : false
                    },
                    "parameters" : {
                      "cursorOpacity" : {
                        "type" : "double",
                        "defaultValue" : 1.0,
                        "interp" : "linr"
                      },
                      "cursorScale" : {
                        "type" : "double",
                        "defaultValue" : 1.0,
                        "interp" : "linr"
                      }
                    },
                    "medias" : [
                        {
                          "id" : 41,
                          "_type" : "ScreenVMFile",
                          "src" : 7,
                          "trackNumber" : 0,
                          "attributes" : {
                            "ident" : "Rec 12-14-2018 4"
                          },
                          "parameters" : {
                            "cursorScale" : {
                              "type" : "double",
                              "defaultValue" : 0.0,
                              "interp" : "linr"
                            },
                            "cursorOpacity" : {
                              "type" : "double",
                              "defaultValue" : 0.0,
                              "interp" : "linr"
                            }
                          },
                          "effects" : [

                          ],
                          "start" : 0,
                          "duration" : 960,
                          "mediaStart" : 0,
                          "mediaDuration" : 960,
                          "scalar" : 1,
                          "metadata" : {
                            "clipSpeedAttribute" : false,
                            "effectApplied" : "none"
                          },
                          "animationTracks" : {

                          }
                        },
                        {
                          "id" : 42,
                          "_type" : "ScreenVMFile",
                          "src" : 7,
                          "trackNumber" : 0,
                          "attributes" : {
                            "ident" : "Rec 12-14-2018 4"
                          },
                          "parameters" : {
                            "cursorScale" : {
                              "type" : "double",
                              "defaultValue" : 0.0,
                              "interp" : "linr"
                            },
                            "cursorOpacity" : {
                              "type" : "double",
                              "defaultValue" : 0.0,
                              "interp" : "linr"
                            }
                          },
                          "effects" : [

                          ],
                          "start" : 960,
                          "duration" : 119,
                          "mediaStart" : 1128,
                          "mediaDuration" : 119,
                          "scalar" : 1,
                          "metadata" : {
                            "clipSpeedAttribute" : false,
                            "effectApplied" : "none"
                          },
                          "animationTracks" : {

                          }
                        },
                        {
                          "id" : 43,
                          "_type" : "ScreenVMFile",
                          "src" : 7,
                          "trackNumber" : 0,
                          "attributes" : {
                            "ident" : "Rec 12-14-2018 4"
                          },
                          "parameters" : {
                            "cursorScale" : {
                              "type" : "double",
                              "defaultValue" : 0.0,
                              "interp" : "linr"
                            },
                            "cursorOpacity" : {
                              "type" : "double",
                              "defaultValue" : 0.0,
                              "interp" : "linr"
                            }
                          },
                          "effects" : [

                          ],
                          "start" : 1079,
                          "duration" : 2425,
                          "mediaStart" : 1577,
                          "mediaDuration" : 2425,
                          "scalar" : 1,
                          "metadata" : {
                            "clipSpeedAttribute" : false,
                            "effectApplied" : "none"
                          },
                          "animationTracks" : {

                          }
                        }
                    ],
                    "effects" : [

                    ],
                    "start" : 5090,
                    "duration" : 1106,
                    "mediaStart" : 2067,
                    "mediaDuration" : 1106,
                    "scalar" : 1,
                    "metadata" : {
                      "clipSpeedAttribute" : false,
                      "effectApplied" : "none"
                    },
                    "animationTracks" : {

                    }
                  },
                  {
                    "id" : 44,
                    "_type" : "ScreenVMFile",
                    "src" : 8,
                    "trackNumber" : 0,
                    "attributes" : {
                      "ident" : "Rec 12-14-2018 7"
                    },
                    "parameters" : {
                      "cursorScale" : {
                        "type" : "double",
                        "defaultValue" : 1.0,
                        "interp" : "linr"
                      },
                      "cursorOpacity" : {
                        "type" : "double",
                        "defaultValue" : 1.0,
                        "interp" : "linr"
                      }
                    },
                    "effects" : [

                    ],
                    "start" : 6196,
                    "duration" : 573,
                    "mediaStart" : 177,
                    "mediaDuration" : 917,
                    "scalar" : "573/917",
                    "metadata" : {
                      "clipSpeedAttribute" : true,
                      "effectApplied" : "Clip Speed"
                    },
                    "animationTracks" : {

                    }
                  },
                  {
                    "id" : 45,
                    "_type" : "ScreenVMFile",
                    "src" : 8,
                    "trackNumber" : 0,
                    "attributes" : {
                      "ident" : "Rec 12-14-2018 7"
                    },
                    "parameters" : {
                      "cursorScale" : {
                        "type" : "double",
                        "defaultValue" : 1.0,
                        "interp" : "linr"
                      },
                      "cursorOpacity" : {
                        "type" : "double",
                        "defaultValue" : 1.0,
                        "interp" : "linr"
                      }
                    },
                    "effects" : [

                    ],
                    "start" : 6769,
                    "duration" : 300,
                    "mediaStart" : 1094,
                    "mediaDuration" : "52560/103",
                    "scalar" : "515/876",
                    "metadata" : {
                      "clipSpeedAttribute" : true,
                      "effectApplied" : "Clip Speed"
                    },
                    "animationTracks" : {

                    }
                  },
                  {
                    "id" : 46,
                    "_type" : "ScreenVMFile",
                    "src" : 9,
                    "trackNumber" : 0,
                    "attributes" : {
                      "ident" : "Rec 12-14-2018 8"
                    },
                    "parameters" : {
                      "cursorScale" : {
                        "type" : "double",
                        "defaultValue" : 1.0,
                        "interp" : "linr"
                      },
                      "cursorOpacity" : {
                        "type" : "double",
                        "defaultValue" : 1.0,
                        "interp" : "linr"
                      }
                    },
                    "effects" : [

                    ],
                    "start" : 7069,
                    "duration" : 297,
                    "mediaStart" : 153,
                    "mediaDuration" : 624,
                    "scalar" : "99/208",
                    "metadata" : {
                      "clipSpeedAttribute" : true,
                      "effectApplied" : "Clip Speed"
                    },
                    "animationTracks" : {

                    }
                  },
                  {
                    "id" : 47,
                    "_type" : "ScreenVMFile",
                    "src" : 9,
                    "trackNumber" : 0,
                    "attributes" : {
                      "ident" : "Rec 12-14-2018 8"
                    },
                    "parameters" : {
                      "cursorScale" : {
                        "type" : "double",
                        "defaultValue" : 1.0,
                        "interp" : "linr"
                      },
                      "cursorOpacity" : {
                        "type" : "double",
                        "defaultValue" : 1.0,
                        "interp" : "linr"
                      }
                    },
                    "effects" : [

                    ],
                    "start" : 7366,
                    "duration" : 144,
                    "mediaStart" : 777,
                    "mediaDuration" : 359,
                    "scalar" : "144/359",
                    "metadata" : {
                      "clipSpeedAttribute" : true,
                      "effectApplied" : "Clip Speed"
                    },
                    "animationTracks" : {

                    }
                  },
                  {
                    "id" : 48,
                    "_type" : "ScreenVMFile",
                    "src" : 9,
                    "trackNumber" : 0,
                    "attributes" : {
                      "ident" : "Rec 12-14-2018 8"
                    },
                    "parameters" : {
                      "cursorScale" : {
                        "type" : "double",
                        "defaultValue" : 1.0,
                        "interp" : "linr"
                      },
                      "cursorOpacity" : {
                        "type" : "double",
                        "defaultValue" : 1.0,
                        "interp" : "linr"
                      }
                    },
                    "effects" : [

                    ],
                    "start" : 7510,
                    "duration" : 111,
                    "mediaStart" : 1136,
                    "mediaDuration" : 324,
                    "scalar" : "37/108",
                    "metadata" : {
                      "clipSpeedAttribute" : true,
                      "effectApplied" : "Clip Speed"
                    },
                    "animationTracks" : {

                    }
                  },
                  {
                    "id" : 49,
                    "_type" : "ScreenVMFile",
                    "src" : 9,
                    "trackNumber" : 0,
                    "attributes" : {
                      "ident" : "Rec 12-14-2018 8"
                    },
                    "parameters" : {
                      "cursorScale" : {
                        "type" : "double",
                        "defaultValue" : 1.0,
                        "interp" : "linr"
                      },
                      "cursorOpacity" : {
                        "type" : "double",
                        "defaultValue" : 1.0,
                        "interp" : "linr"
                      }
                    },
                    "effects" : [

                    ],
                    "start" : 7621,
                    "duration" : 142,
                    "mediaStart" : 1460,
                    "mediaDuration" : 340,
                    "scalar" : "71/170",
                    "metadata" : {
                      "clipSpeedAttribute" : true,
                      "effectApplied" : "Clip Speed"
                    },
                    "animationTracks" : {

                    }
                  },
                  {
                    "id" : 50,
                    "_type" : "ScreenVMFile",
                    "src" : 9,
                    "trackNumber" : 0,
                    "attributes" : {
                      "ident" : "Rec 12-14-2018 8"
                    },
                    "parameters" : {
                      "cursorScale" : {
                        "type" : "double",
                        "defaultValue" : 1.0,
                        "interp" : "linr"
                      },
                      "cursorOpacity" : {
                        "type" : "double",
                        "defaultValue" : 1.0,
                        "interp" : "linr"
                      }
                    },
                    "effects" : [

                    ],
                    "start" : 7763,
                    "duration" : 148,
                    "mediaStart" : 1800,
                    "mediaDuration" : 193,
                    "scalar" : "148/193",
                    "metadata" : {
                      "clipSpeedAttribute" : true,
                      "effectApplied" : "Clip Speed"
                    },
                    "animationTracks" : {

                    }
                  },
                  {
                    "id" : 51,
                    "_type" : "ScreenVMFile",
                    "src" : 9,
                    "trackNumber" : 0,
                    "attributes" : {
                      "ident" : "Rec 12-14-2018 8"
                    },
                    "parameters" : {
                      "cursorScale" : {
                        "type" : "double",
                        "defaultValue" : 1.0,
                        "interp" : "linr"
                      },
                      "cursorOpacity" : {
                        "type" : "double",
                        "defaultValue" : 1.0,
                        "interp" : "linr"
                      }
                    },
                    "effects" : [

                    ],
                    "start" : 7911,
                    "duration" : 358,
                    "mediaStart" : 1993,
                    "mediaDuration" : "147496/165",
                    "scalar" : "165/412",
                    "metadata" : {
                      "clipSpeedAttribute" : true,
                      "effectApplied" : "Clip Speed"
                    },
                    "animationTracks" : {

                    }
                  },
                  {
                    "id" : 52,
                    "_type" : "ScreenVMFile",
                    "src" : 10,
                    "trackNumber" : 0,
                    "attributes" : {
                      "ident" : "Rec 12-14-2018 11"
                    },
                    "parameters" : {
                      "cursorScale" : {
                        "type" : "double",
                        "defaultValue" : 1.0,
                        "interp" : "linr"
                      },
                      "cursorOpacity" : {
                        "type" : "double",
                        "defaultValue" : 1.0,
                        "interp" : "linr"
                      }
                    },
                    "effects" : [

                    ],
                    "start" : 8269,
                    "duration" : 558,
                    "mediaStart" : 110,
                    "mediaDuration" : 670,
                    "scalar" : "279/335",
                    "metadata" : {
                      "clipSpeedAttribute" : true,
                      "effectApplied" : "Clip Speed"
                    },
                    "animationTracks" : {

                    }
                  },
                  {
                    "id" : 53,
                    "_type" : "ScreenVMFile",
                    "src" : 10,
                    "trackNumber" : 0,
                    "attributes" : {
                      "ident" : "Rec 12-14-2018 11"
                    },
                    "parameters" : {
                      "cursorScale" : {
                        "type" : "double",
                        "defaultValue" : 1.0,
                        "interp" : "linr"
                      },
                      "cursorOpacity" : {
                        "type" : "double",
                        "defaultValue" : 1.0,
                        "interp" : "linr"
                      }
                    },
                    "effects" : [

                    ],
                    "start" : 8827,
                    "duration" : 418,
                    "mediaStart" : 780,
                    "mediaDuration" : "4009/6",
                    "scalar" : "132/211",
                    "metadata" : {
                      "clipSpeedAttribute" : true,
                      "effectApplied" : "Clip Speed"
                    },
                    "animationTracks" : {

                    }
                  },
                  {
                    "id" : 54,
                    "_type" : "ScreenVMFile",
                    "src" : 10,
                    "trackNumber" : 0,
                    "attributes" : {
                      "ident" : "Rec 12-14-2018 11"
                    },
                    "parameters" : {
                      "cursorScale" : {
                        "type" : "double",
                        "defaultValue" : 1.0,
                        "interp" : "linr"
                      },
                      "cursorOpacity" : {
                        "type" : "double",
                        "defaultValue" : 1.0,
                        "interp" : "linr"
                      }
                    },
                    "effects" : [

                    ],
                    "start" : 9245,
                    "duration" : 122,
                    "mediaStart" : "94313/66",
                    "mediaDuration" : "12871/66",
                    "scalar" : "132/211",
                    "metadata" : {
                      "clipSpeedAttribute" : true,
                      "effectApplied" : "Clip Speed"
                    },
                    "animationTracks" : {

                    }
                  },
                  {
                    "id" : 55,
                    "_type" : "ScreenVMFile",
                    "src" : 10,
                    "trackNumber" : 0,
                    "attributes" : {
                      "ident" : "Rec 12-14-2018 11"
                    },
                    "parameters" : {
                      "cursorScale" : {
                        "type" : "double",
                        "defaultValue" : 1.0,
                        "interp" : "linr"
                      },
                      "cursorOpacity" : {
                        "type" : "double",
                        "defaultValue" : 1.0,
                        "interp" : "linr"
                      }
                    },
                    "effects" : [

                    ],
                    "start" : 9367,
                    "duration" : 1170,
                    "mediaStart" : 1624,
                    "mediaDuration" : 1170,
                    "scalar" : 1,
                    "metadata" : {
                      "clipSpeedAttribute" : false,
                      "effectApplied" : "none"
                    },
                    "animationTracks" : {

                    }
                  }
                ],
                "transitions" : [
                  {
                    "name" : "Flip",
                    "duration" : 30,
                    "trivial" : false,
                    "useAudioPreRoll" : false,
                    "useVisualPreRoll" : true,
                    "leftMedia" : 14,
                    "rightMedia" : 21
                  },
                  {
                    "name" : "Flip",
                    "duration" : 30,
                    "trivial" : false,
                    "useAudioPreRoll" : false,
                    "useVisualPreRoll" : true,
                    "leftMedia" : 21,
                    "rightMedia" : 28
                  },
                  {
                    "name" : "Fade",
                    "duration" : 30,
                    "trivial" : false,
                    "useAudioPreRoll" : false,
                    "useVisualPreRoll" : true,
                    "leftMedia" : 28,
                    "rightMedia" : 31
                  },
                  {
                    "name" : "Fade",
                    "duration" : 30,
                    "trivial" : false,
                    "useAudioPreRoll" : false,
                    "useVisualPreRoll" : true,
                    "leftMedia" : 40,
                    "rightMedia" : 44
                  },
                  {
                    "name" : "Fade",
                    "duration" : 30,
                    "trivial" : false,
                    "useAudioPreRoll" : false,
                    "useVisualPreRoll" : true,
                    "leftMedia" : 45,
                    "rightMedia" : 46
                  },
                  {
                    "name" : "Fade",
                    "duration" : 30,
                    "trivial" : false,
                    "useAudioPreRoll" : false,
                    "useVisualPreRoll" : true,
                    "leftMedia" : 51,
                    "rightMedia" : 52
                  }
                ]
              },
              {
                "trackIndex" : 2,
                "medias" : [
                  {
                    "id" : 56,
                    "_type" : "IMFile",
                    "src" : 3,
                    "trackNumber" : 0,
                    "trimStartSum" : 0,
                    "attributes" : {
                      "ident" : "vc-logo-ondark"
                    },
                    "parameters" : {
                      "translation0" : -573.0,
                      "translation1" : 204.5,
                      "scale0" : 0.5,
                      "scale1" : 0.5
                    },
                    "effects" : [

                    ],
                    "start" : 0,
                    "duration" : 90,
                    "mediaStart" : 0,
                    "mediaDuration" : 1,
                    "scalar" : 1,
                    "metadata" : {
                      "clipSpeedAttribute" : false,
                      "default-scale" : "1",
                      "effectApplied" : "none"
                    },
                    "animationTracks" : {

                    }
                  },
                  {
                    "id" : 57,
                    "_type" : "AMFile",
                    "src" : 7,
                    "trackNumber" : 1,
                    "attributes" : {
                      "ident" : "Rec 12-14-2018 4",
                      "sampleRate" : 44100,
                      "bitDepth" : 16,
                      "gain" : 1.0,
                      "mixToMono" : false
                    },
                      "channelNumber" : "0,1",
                    "effects" : [

                    ],
                    "start" : 3931,
                    "duration" : 600,
                    "mediaStart" : 150,
                    "mediaDuration" : 600,
                    "scalar" : 1,
                    "metadata" : {
                      "clipSpeedAttribute" : false,
                      "effectApplied" : "none"
                    },
                    "animationTracks" : {

                    }
                  },
                  {
                    "id" : 58,
                    "_type" : "StitchedMedia",
                    "minMediaStart" : 0,
                    "attributes" : {
                      "ident" : "Rec 12-14-2018 4",
                      "gain" : 1.0,
                      "mixToMono" : false
                    },
                    "parameters" : {
                      "volume" : 1.0,
                      "cursorOpacity" : 1.0,
                      "cursorScale" : 1.0
                    },
                    "medias" : [
                        {
                          "id" : 59,
                          "_type" : "AMFile",
                          "src" : 7,
                          "trackNumber" : 1,
                          "attributes" : {
                            "ident" : "Rec 12-14-2018 4",
                            "sampleRate" : 44100,
                            "bitDepth" : 16,
                            "gain" : 1.0,
                            "mixToMono" : false
                          },
                            "channelNumber" : "0,1",
                          "effects" : [

                          ],
                          "start" : 0,
                          "duration" : 1158,
                          "mediaStart" : 0,
                          "mediaDuration" : 1158,
                          "scalar" : 1,
                          "metadata" : {
                            "clipSpeedAttribute" : false,
                            "effectApplied" : "none"
                          },
                          "animationTracks" : {

                          }
                        },
                        {
                          "id" : 60,
                          "_type" : "AMFile",
                          "src" : 7,
                          "trackNumber" : 1,
                          "attributes" : {
                            "ident" : "Rec 12-14-2018 4",
                            "sampleRate" : 44100,
                            "bitDepth" : 16,
                            "gain" : 1.0,
                            "mixToMono" : false
                          },
                            "channelNumber" : "0,1",
                          "effects" : [

                          ],
                          "start" : 1158,
                          "duration" : 2495,
                          "mediaStart" : 1517,
                          "mediaDuration" : 2495,
                          "scalar" : 1,
                          "metadata" : {
                            "clipSpeedAttribute" : false,
                            "effectApplied" : "none"
                          },
                          "animationTracks" : {

                          }
                        }
                    ],
                    "effects" : [

                    ],
                    "start" : 4531,
                    "duration" : 269,
                    "mediaStart" : 1018,
                    "mediaDuration" : 269,
                    "scalar" : 1,
                    "metadata" : {
                      "clipSpeedAttribute" : false,
                      "effectApplied" : "none"
                    },
                    "animationTracks" : {

                    }
                  },
                  {
                    "id" : 61,
                    "_type" : "StitchedMedia",
                    "minMediaStart" : 0,
                    "attributes" : {
                      "ident" : "Rec 12-14-2018 4",
                      "gain" : 1.0,
                      "mixToMono" : false
                    },
                    "parameters" : {
                      "volume" : 1.0,
                      "cursorOpacity" : 1.0,
                      "cursorScale" : 1.0
                    },
                    "medias" : [
                        {
                          "id" : 62,
                          "_type" : "AMFile",
                          "src" : 7,
                          "trackNumber" : 1,
                          "attributes" : {
                            "ident" : "Rec 12-14-2018 4",
                            "sampleRate" : 44100,
                            "bitDepth" : 16,
                            "gain" : 1.0,
                            "mixToMono" : false
                          },
                            "channelNumber" : "0,1",
                          "effects" : [

                          ],
                          "start" : 0,
                          "duration" : 1158,
                          "mediaStart" : 0,
                          "mediaDuration" : 1158,
                          "scalar" : 1,
                          "metadata" : {
                            "clipSpeedAttribute" : false,
                            "effectApplied" : "none"
                          },
                          "animationTracks" : {

                          }
                        },
                        {
                          "id" : 63,
                          "_type" : "AMFile",
                          "src" : 7,
                          "trackNumber" : 1,
                          "attributes" : {
                            "ident" : "Rec 12-14-2018 4",
                            "sampleRate" : 44100,
                            "bitDepth" : 16,
                            "gain" : 1.0,
                            "mixToMono" : false
                          },
                            "channelNumber" : "0,1",
                          "effects" : [

                          ],
                          "start" : 1158,
                          "duration" : 368,
                          "mediaStart" : 1517,
                          "mediaDuration" : 368,
                          "scalar" : 1,
                          "metadata" : {
                            "clipSpeedAttribute" : false,
                            "effectApplied" : "none"
                          },
                          "animationTracks" : {

                          }
                        },
                        {
                          "id" : 64,
                          "_type" : "AMFile",
                          "src" : 7,
                          "trackNumber" : 1,
                          "attributes" : {
                            "ident" : "Rec 12-14-2018 4",
                            "sampleRate" : 44100,
                            "bitDepth" : 16,
                            "gain" : 1.0,
                            "mixToMono" : false
                          },
                            "channelNumber" : "0,1",
                          "effects" : [

                          ],
                          "start" : 1526,
                          "duration" : 216,
                          "mediaStart" : 1981,
                          "mediaDuration" : 216,
                          "scalar" : 1,
                          "metadata" : {
                            "clipSpeedAttribute" : false,
                            "effectApplied" : "none"
                          },
                          "animationTracks" : {

                          }
                        },
                        {
                          "id" : 65,
                          "_type" : "AMFile",
                          "src" : 7,
                          "trackNumber" : 1,
                          "attributes" : {
                            "ident" : "Rec 12-14-2018 4",
                            "sampleRate" : 44100,
                            "bitDepth" : 16,
                            "gain" : 1.0,
                            "mixToMono" : false
                          },
                            "channelNumber" : "0,1",
                          "effects" : [

                          ],
                          "start" : 1742,
                          "duration" : 153,
                          "mediaStart" : 2553,
                          "mediaDuration" : 153,
                          "scalar" : 1,
                          "metadata" : {
                            "clipSpeedAttribute" : false,
                            "effectApplied" : "none"
                          },
                          "animationTracks" : {

                          }
                        },
                        {
                          "id" : 66,
                          "_type" : "AMFile",
                          "src" : 7,
                          "trackNumber" : 1,
                          "attributes" : {
                            "ident" : "Rec 12-14-2018 4",
                            "sampleRate" : 44100,
                            "bitDepth" : 16,
                            "gain" : 1.0,
                            "mixToMono" : false
                          },
                            "channelNumber" : "0,1",
                          "effects" : [

                          ],
                          "start" : 1895,
                          "duration" : 1243,
                          "mediaStart" : 2769,
                          "mediaDuration" : 1243,
                          "scalar" : 1,
                          "metadata" : {
                            "clipSpeedAttribute" : false,
                            "effectApplied" : "none"
                          },
                          "animationTracks" : {

                          }
                        }
                    ],
                    "effects" : [

                    ],
                    "start" : 4800,
                    "duration" : 1396,
                    "mediaStart" : 1446,
                    "mediaDuration" : 1396,
                    "scalar" : 1,
                    "metadata" : {
                      "clipSpeedAttribute" : false,
                      "effectApplied" : "none"
                    },
                    "animationTracks" : {

                    }
                  },
                  {
                    "id" : 67,
                    "_type" : "StitchedMedia",
                    "minMediaStart" : 0,
                    "attributes" : {
                      "ident" : "Rec 12-14-2018 7",
                      "gain" : 1.0,
                      "mixToMono" : false
                    },
                    "parameters" : {
                      "volume" : 1.0,
                      "cursorOpacity" : 1.0,
                      "cursorScale" : 1.0
                    },
                    "medias" : [
                        {
                          "id" : 68,
                          "_type" : "AMFile",
                          "src" : 8,
                          "trackNumber" : 1,
                          "attributes" : {
                            "ident" : "Rec 12-14-2018 7",
                            "sampleRate" : 44100,
                            "bitDepth" : 16,
                            "gain" : 1.0,
                            "mixToMono" : false
                          },
                            "channelNumber" : "0,1",
                          "effects" : [

                          ],
                          "start" : 0,
                          "duration" : 586,
                          "mediaStart" : 0,
                          "mediaDuration" : 586,
                          "scalar" : 1,
                          "metadata" : {
                            "clipSpeedAttribute" : false,
                            "effectApplied" : "none"
                          },
                          "animationTracks" : {

                          }
                        },
                        {
                          "id" : 69,
                          "_type" : "AMFile",
                          "src" : 8,
                          "trackNumber" : 1,
                          "attributes" : {
                            "ident" : "Rec 12-14-2018 7",
                            "sampleRate" : 44100,
                            "bitDepth" : 16,
                            "gain" : 1.0,
                            "mixToMono" : false
                          },
                            "channelNumber" : "0,1",
                          "effects" : [

                          ],
                          "start" : 586,
                          "duration" : 164,
                          "mediaStart" : 884,
                          "mediaDuration" : 164,
                          "scalar" : 1,
                          "metadata" : {
                            "clipSpeedAttribute" : false,
                            "effectApplied" : "none"
                          },
                          "animationTracks" : {

                          }
                        },
                        {
                          "id" : 70,
                          "_type" : "AMFile",
                          "src" : 8,
                          "trackNumber" : 1,
                          "attributes" : {
                            "ident" : "Rec 12-14-2018 7",
                            "sampleRate" : 44100,
                            "bitDepth" : 16,
                            "gain" : 1.0,
                            "mixToMono" : false
                          },
                            "channelNumber" : "0,1",
                          "effects" : [

                          ],
                          "start" : 750,
                          "duration" : 513,
                          "mediaStart" : 1463,
                          "mediaDuration" : 513,
                          "scalar" : 1,
                          "metadata" : {
                            "clipSpeedAttribute" : false,
                            "effectApplied" : "none"
                          },
                          "animationTracks" : {

                          }
                        }
                    ],
                    "effects" : [

                    ],
                    "start" : 6196,
                    "duration" : 840,
                    "mediaStart" : 177,
                    "mediaDuration" : 840,
                    "scalar" : 1,
                    "metadata" : {
                      "clipSpeedAttribute" : false,
                      "effectApplied" : "none"
                    },
                    "animationTracks" : {

                    }
                  },
                  {
                    "id" : 71,
                    "_type" : "StitchedMedia",
                    "minMediaStart" : 0,
                    "attributes" : {
                      "ident" : "Rec 12-14-2018 8",
                      "gain" : 1.0,
                      "mixToMono" : false
                    },
                    "parameters" : {
                      "volume" : 1.0,
                      "cursorOpacity" : 1.0,
                      "cursorScale" : 1.0
                    },
                    "medias" : [
                        {
                          "id" : 72,
                          "_type" : "AMFile",
                          "src" : 9,
                          "trackNumber" : 1,
                          "attributes" : {
                            "ident" : "Rec 12-14-2018 8",
                            "sampleRate" : 44100,
                            "bitDepth" : 16,
                            "gain" : 1.0,
                            "mixToMono" : false
                          },
                            "channelNumber" : "0,1",
                          "effects" : [

                          ],
                          "start" : 0,
                          "duration" : 296,
                          "mediaStart" : 0,
                          "mediaDuration" : 296,
                          "scalar" : 1,
                          "metadata" : {
                            "clipSpeedAttribute" : false,
                            "effectApplied" : "none"
                          },
                          "animationTracks" : {

                          }
                        },
                        {
                          "id" : 73,
                          "_type" : "AMFile",
                          "src" : 9,
                          "trackNumber" : 1,
                          "attributes" : {
                            "ident" : "Rec 12-14-2018 8",
                            "sampleRate" : 44100,
                            "bitDepth" : 16,
                            "gain" : 1.0,
                            "mixToMono" : false
                          },
                            "channelNumber" : "0,1",
                          "effects" : [

                          ],
                          "start" : 296,
                          "duration" : 155,
                          "mediaStart" : 559,
                          "mediaDuration" : 155,
                          "scalar" : 1,
                          "metadata" : {
                            "clipSpeedAttribute" : false,
                            "effectApplied" : "none"
                          },
                          "animationTracks" : {

                          }
                        },
                        {
                          "id" : 74,
                          "_type" : "AMFile",
                          "src" : 9,
                          "trackNumber" : 1,
                          "attributes" : {
                            "ident" : "Rec 12-14-2018 8",
                            "sampleRate" : 44100,
                            "bitDepth" : 16,
                            "gain" : 1.0,
                            "mixToMono" : false
                          },
                            "channelNumber" : "0,1",
                          "effects" : [

                          ],
                          "start" : 451,
                          "duration" : 144,
                          "mediaStart" : 893,
                          "mediaDuration" : 144,
                          "scalar" : 1,
                          "metadata" : {
                            "clipSpeedAttribute" : false,
                            "effectApplied" : "none"
                          },
                          "animationTracks" : {

                          }
                        },
                        {
                          "id" : 75,
                          "_type" : "AMFile",
                          "src" : 9,
                          "trackNumber" : 1,
                          "attributes" : {
                            "ident" : "Rec 12-14-2018 8",
                            "sampleRate" : 44100,
                            "bitDepth" : 16,
                            "gain" : 1.0,
                            "mixToMono" : false
                          },
                            "channelNumber" : "0,1",
                          "effects" : [

                          ],
                          "start" : 595,
                          "duration" : 1690,
                          "mediaStart" : 1359,
                          "mediaDuration" : 1690,
                          "scalar" : 1,
                          "metadata" : {
                            "clipSpeedAttribute" : false,
                            "effectApplied" : "none"
                          },
                          "animationTracks" : {

                          }
                        }
                    ],
                    "effects" : [

                    ],
                    "start" : 7069,
                    "duration" : 550,
                    "mediaStart" : 153,
                    "mediaDuration" : 550,
                    "scalar" : 1,
                    "metadata" : {
                      "clipSpeedAttribute" : false,
                      "effectApplied" : "none"
                    },
                    "animationTracks" : {

                    }
                  },
                  {
                    "id" : 76,
                    "_type" : "StitchedMedia",
                    "minMediaStart" : 0,
                    "attributes" : {
                      "ident" : "Rec 12-14-2018 8",
                      "gain" : 1.0,
                      "mixToMono" : false
                    },
                    "parameters" : {
                      "volume" : 1.0,
                      "cursorOpacity" : 1.0,
                      "cursorScale" : 1.0
                    },
                    "medias" : [
                        {
                          "id" : 77,
                          "_type" : "AMFile",
                          "src" : 9,
                          "trackNumber" : 1,
                          "attributes" : {
                            "ident" : "Rec 12-14-2018 8",
                            "sampleRate" : 44100,
                            "bitDepth" : 16,
                            "gain" : 1.0,
                            "mixToMono" : false
                          },
                            "channelNumber" : "0,1",
                          "effects" : [

                          ],
                          "start" : 0,
                          "duration" : 296,
                          "mediaStart" : 0,
                          "mediaDuration" : 296,
                          "scalar" : 1,
                          "metadata" : {
                            "clipSpeedAttribute" : false,
                            "effectApplied" : "none"
                          },
                          "animationTracks" : {

                          }
                        },
                        {
                          "id" : 78,
                          "_type" : "AMFile",
                          "src" : 9,
                          "trackNumber" : 1,
                          "attributes" : {
                            "ident" : "Rec 12-14-2018 8",
                            "sampleRate" : 44100,
                            "bitDepth" : 16,
                            "gain" : 1.0,
                            "mixToMono" : false
                          },
                            "channelNumber" : "0,1",
                          "effects" : [

                          ],
                          "start" : 296,
                          "duration" : 155,
                          "mediaStart" : 559,
                          "mediaDuration" : 155,
                          "scalar" : 1,
                          "metadata" : {
                            "clipSpeedAttribute" : false,
                            "effectApplied" : "none"
                          },
                          "animationTracks" : {

                          }
                        },
                        {
                          "id" : 79,
                          "_type" : "AMFile",
                          "src" : 9,
                          "trackNumber" : 1,
                          "attributes" : {
                            "ident" : "Rec 12-14-2018 8",
                            "sampleRate" : 44100,
                            "bitDepth" : 16,
                            "gain" : 1.0,
                            "mixToMono" : false
                          },
                            "channelNumber" : "0,1",
                          "effects" : [

                          ],
                          "start" : 451,
                          "duration" : 144,
                          "mediaStart" : 893,
                          "mediaDuration" : 144,
                          "scalar" : 1,
                          "metadata" : {
                            "clipSpeedAttribute" : false,
                            "effectApplied" : "none"
                          },
                          "animationTracks" : {

                          }
                        },
                        {
                          "id" : 80,
                          "_type" : "AMFile",
                          "src" : 9,
                          "trackNumber" : 1,
                          "attributes" : {
                            "ident" : "Rec 12-14-2018 8",
                            "sampleRate" : 44100,
                            "bitDepth" : 16,
                            "gain" : 1.0,
                            "mixToMono" : false
                          },
                            "channelNumber" : "0,1",
                          "effects" : [

                          ],
                          "start" : 595,
                          "duration" : 447,
                          "mediaStart" : 1359,
                          "mediaDuration" : 447,
                          "scalar" : 1,
                          "metadata" : {
                            "clipSpeedAttribute" : false,
                            "effectApplied" : "none"
                          },
                          "animationTracks" : {

                          }
                        },
                        {
                          "id" : 81,
                          "_type" : "AMFile",
                          "src" : 9,
                          "trackNumber" : 1,
                          "attributes" : {
                            "ident" : "Rec 12-14-2018 8",
                            "sampleRate" : 44100,
                            "bitDepth" : 16,
                            "gain" : 1.0,
                            "mixToMono" : false
                          },
                            "channelNumber" : "0,1",
                          "effects" : [

                          ],
                          "start" : 1042,
                          "duration" : 149,
                          "mediaStart" : 2079,
                          "mediaDuration" : 149,
                          "scalar" : 1,
                          "metadata" : {
                            "clipSpeedAttribute" : false,
                            "effectApplied" : "none"
                          },
                          "animationTracks" : {

                          }
                        },
                        {
                          "id" : 82,
                          "_type" : "AMFile",
                          "src" : 9,
                          "trackNumber" : 1,
                          "attributes" : {
                            "ident" : "Rec 12-14-2018 8",
                            "sampleRate" : 44100,
                            "bitDepth" : 16,
                            "gain" : 1.0,
                            "mixToMono" : false
                          },
                            "channelNumber" : "0,1",
                          "effects" : [

                          ],
                          "start" : 1191,
                          "duration" : 514,
                          "mediaStart" : 2535,
                          "mediaDuration" : 514,
                          "scalar" : 1,
                          "metadata" : {
                            "clipSpeedAttribute" : false,
                            "effectApplied" : "none"
                          },
                          "animationTracks" : {

                          }
                        }
                    ],
                    "effects" : [

                    ],
                    "start" : 7619,
                    "duration" : 627,
                    "mediaStart" : 783,
                    "mediaDuration" : 627,
                    "scalar" : 1,
                    "metadata" : {
                      "clipSpeedAttribute" : false,
                      "effectApplied" : "none"
                    },
                    "animationTracks" : {

                    }
                  },
                  {
                    "id" : 83,
                    "_type" : "AMFile",
                    "src" : 10,
                    "trackNumber" : 1,
                    "attributes" : {
                      "ident" : "Rec 12-14-2018 11",
                      "sampleRate" : 44100,
                      "bitDepth" : 16,
                      "gain" : 1.0,
                      "mixToMono" : false
                    },
                      "channelNumber" : "0,1",
                    "effects" : [

                    ],
                    "start" : 8269,
                    "duration" : 558,
                    "mediaStart" : 110,
                    "mediaDuration" : 558,
                    "scalar" : 1,
                    "metadata" : {
                      "clipSpeedAttribute" : false,
                      "effectApplied" : "none"
                    },
                    "animationTracks" : {

                    }
                  },
                  {
                    "id" : 84,
                    "_type" : "StitchedMedia",
                    "minMediaStart" : 0,
                    "attributes" : {
                      "ident" : "Rec 12-14-2018 11",
                      "gain" : 1.0,
                      "mixToMono" : false
                    },
                    "parameters" : {
                      "volume" : 1.0,
                      "cursorOpacity" : 1.0,
                      "cursorScale" : 1.0
                    },
                    "medias" : [
                        {
                          "id" : 85,
                          "_type" : "AMFile",
                          "src" : 10,
                          "trackNumber" : 1,
                          "attributes" : {
                            "ident" : "Rec 12-14-2018 11",
                            "sampleRate" : 44100,
                            "bitDepth" : 16,
                            "gain" : 1.0,
                            "mixToMono" : false
                          },
                            "channelNumber" : "0,1",
                          "effects" : [

                          ],
                          "start" : 0,
                          "duration" : 1196,
                          "mediaStart" : 0,
                          "mediaDuration" : 1196,
                          "scalar" : 1,
                          "metadata" : {
                            "clipSpeedAttribute" : false,
                            "effectApplied" : "none"
                          },
                          "animationTracks" : {

                          }
                        },
                        {
                          "id" : 86,
                          "_type" : "AMFile",
                          "src" : 10,
                          "trackNumber" : 1,
                          "attributes" : {
                            "ident" : "Rec 12-14-2018 11",
                            "sampleRate" : 44100,
                            "bitDepth" : 16,
                            "gain" : 1.0,
                            "mixToMono" : false
                          },
                            "channelNumber" : "0,1",
                          "effects" : [

                          ],
                          "start" : 1196,
                          "duration" : 76,
                          "mediaStart" : 1221,
                          "mediaDuration" : 76,
                          "scalar" : 1,
                          "metadata" : {
                            "clipSpeedAttribute" : false,
                            "effectApplied" : "none"
                          },
                          "animationTracks" : {

                          }
                        },
                        {
                          "id" : 87,
                          "_type" : "AMFile",
                          "src" : 10,
                          "trackNumber" : 1,
                          "attributes" : {
                            "ident" : "Rec 12-14-2018 11",
                            "sampleRate" : 44100,
                            "bitDepth" : 16,
                            "gain" : 1.0,
                            "mixToMono" : false
                          },
                            "channelNumber" : "0,1",
                          "effects" : [

                          ],
                          "start" : 1272,
                          "duration" : 401,
                          "mediaStart" : 1315,
                          "mediaDuration" : 401,
                          "scalar" : 1,
                          "metadata" : {
                            "clipSpeedAttribute" : false,
                            "effectApplied" : "none"
                          },
                          "animationTracks" : {

                          }
                        },
                        {
                          "id" : 88,
                          "_type" : "AMFile",
                          "src" : 10,
                          "trackNumber" : 1,
                          "attributes" : {
                            "ident" : "Rec 12-14-2018 11",
                            "sampleRate" : 44100,
                            "bitDepth" : 16,
                            "gain" : 1.0,
                            "mixToMono" : false
                          },
                            "channelNumber" : "0,1",
                          "effects" : [

                          ],
                          "start" : 1673,
                          "duration" : 287,
                          "mediaStart" : 1967,
                          "mediaDuration" : 287,
                          "scalar" : 1,
                          "metadata" : {
                            "clipSpeedAttribute" : false,
                            "effectApplied" : "none"
                          },
                          "animationTracks" : {

                          }
                        },
                        {
                          "id" : 89,
                          "_type" : "AMFile",
                          "src" : 10,
                          "trackNumber" : 1,
                          "attributes" : {
                            "ident" : "Rec 12-14-2018 11",
                            "sampleRate" : 44100,
                            "bitDepth" : 16,
                            "gain" : 1.0,
                            "mixToMono" : false
                          },
                            "channelNumber" : "0,1",
                          "effects" : [

                          ],
                          "start" : 1960,
                          "duration" : 169,
                          "mediaStart" : 2304,
                          "mediaDuration" : 169,
                          "scalar" : 1,
                          "metadata" : {
                            "clipSpeedAttribute" : false,
                            "effectApplied" : "none"
                          },
                          "animationTracks" : {

                          }
                        },
                        {
                          "id" : 90,
                          "_type" : "AMFile",
                          "src" : 10,
                          "trackNumber" : 1,
                          "attributes" : {
                            "ident" : "Rec 12-14-2018 11",
                            "sampleRate" : 44100,
                            "bitDepth" : 16,
                            "gain" : 1.0,
                            "mixToMono" : false
                          },
                            "channelNumber" : "0,1",
                          "effects" : [

                          ],
                          "start" : 2129,
                          "duration" : 150,
                          "mediaStart" : 2539,
                          "mediaDuration" : 150,
                          "scalar" : 1,
                          "metadata" : {
                            "clipSpeedAttribute" : false,
                            "effectApplied" : "none"
                          },
                          "animationTracks" : {

                          }
                        },
                        {
                          "id" : 91,
                          "_type" : "AMFile",
                          "src" : 10,
                          "trackNumber" : 1,
                          "attributes" : {
                            "ident" : "Rec 12-14-2018 11",
                            "sampleRate" : 44100,
                            "bitDepth" : 16,
                            "gain" : 1.0,
                            "mixToMono" : false
                          },
                            "channelNumber" : "0,1",
                          "effects" : [

                          ],
                          "start" : 2279,
                          "duration" : 172,
                          "mediaStart" : 2726,
                          "mediaDuration" : 172,
                          "scalar" : 1,
                          "metadata" : {
                            "clipSpeedAttribute" : false,
                            "effectApplied" : "none"
                          },
                          "animationTracks" : {

                          }
                        },
                        {
                          "id" : 92,
                          "_type" : "AMFile",
                          "src" : 10,
                          "trackNumber" : 1,
                          "attributes" : {
                            "ident" : "Rec 12-14-2018 11",
                            "sampleRate" : 44100,
                            "bitDepth" : 16,
                            "gain" : 1.0,
                            "mixToMono" : false
                          },
                            "channelNumber" : "0,1",
                          "effects" : [

                          ],
                          "start" : 2451,
                          "duration" : 384,
                          "mediaStart" : 2937,
                          "mediaDuration" : 384,
                          "scalar" : 1,
                          "metadata" : {
                            "clipSpeedAttribute" : false,
                            "effectApplied" : "none"
                          },
                          "animationTracks" : {

                          }
                        }
                    ],
                    "effects" : [

                    ],
                    "start" : 8827,
                    "duration" : 1710,
                    "mediaStart" : 860,
                    "mediaDuration" : 1710,
                    "scalar" : 1,
                    "metadata" : {
                      "clipSpeedAttribute" : false,
                      "effectApplied" : "none"
                    },
                    "animationTracks" : {

                    }
                  }
                ]
              },
              {
                "trackIndex" : 3,
                "medias" : [
                  {
                    "id" : 93,
                    "_type" : "Callout",
                    "def" : {
                      "kind" : "MacSVG",
                      "shape" : "",
                      "style" : "",
                      "DrawTime" : {
                        "type" : "double",
                        "defaultValue" : 1.0,
                        "interp" : "linr"
                      },
                      "DrawTimeMac" : {
                        "type" : "double",
                        "defaultValue" : 1.0,
                        "interp" : "linr"
                      },
                      "height" : {
                        "type" : "double",
                        "defaultValue" : 281.438741657777,
                        "interp" : "linr"
                      },
                      "stroke-color-blue" : {
                        "type" : "double",
                        "defaultValue" : 0.392156862745098,
                        "interp" : "linr"
                      },
                      "stroke-color-green" : {
                        "type" : "double",
                        "defaultValue" : 0.0,
                        "interp" : "linr"
                      },
                      "stroke-color-red" : {
                        "type" : "double",
                        "defaultValue" : 1.0,
                        "interp" : "linr"
                      },
                      "stroke-width" : {
                        "type" : "double",
                        "defaultValue" : 3.0,
                        "interp" : "linr"
                      },
                      "width" : {
                        "type" : "double",
                        "defaultValue" : 393.874114954144,
                        "interp" : "linr"
                      },
                      "horizontal-alignment" : "center",
                      "vertical-alignment" : "center",
                      "xmlContent" : "<?xml version=\"1.0\" encoding=\"utf-8\"?>\r<!-- Generator: Adobe Illustrator 15.0.2, SVG Export Plug-In . SVG Version: 6.00 Build 0)  -->\r<!DOCTYPE svg PUBLIC \"-//W3C//DTD SVG 1.1//EN\" \"http://www.w3.org/Graphics/SVG/1.1/DTD/svg11.dtd\">\r<svg version=\"1.1\" id=\"Layer_2\" xmlns=\"http://www.w3.org/2000/svg\" xmlns:xlink=\"http://www.w3.org/1999/xlink\" x=\"0px\" y=\"0px\"\r\t width=\"420px\" height=\"420px\" viewBox=\"0 0 420 420\" enable-background=\"new 0 0 420 420\" xml:space=\"preserve\">\r<path fill=\"none\" stroke=\"#000000\" stroke-miterlimit=\"10\" d=\"M200.161,69.581c0,0-34.007-4.101-97.206,31.526\r\tC12.011,151.033-34.086,275.31,81.937,327.045c70.942,31.605,156.128,30.13,229.878,5.254\r\tc52.001-17.164,108.586-56.52,91.95-119.537C370.825,87.977,218.521,59.95,109.522,82.715\"/>\r</svg>\r",
                      "textAttributes" : {
                        "type" : "textAttributeList",
                        "keyframes" : [
                          {
                            "endTime" : 0,
                            "time" : 0,
                            "value" : null,
                            "duration" : 0
                          }
                        ]
                      }
                    },
                    "attributes" : {
                      "autoRotateText" : true
                    },
                    "parameters" : {
                      "translation0" : {
                        "type" : "double",
                        "defaultValue" : 120.748586389585,
                        "interp" : "eioe"
                      },
                      "translation1" : {
                        "type" : "double",
                        "defaultValue" : 181.402073802489,
                        "interp" : "eioe"
                      },
                      "rotation2" : {
                        "type" : "double",
                        "defaultValue" : -4.28129753871076e-15,
                        "interp" : "eioe"
                      },
                      "scale0" : {
                        "type" : "double",
                        "defaultValue" : -1.86472045521304,
                        "interp" : "eioe"
                      },
                      "scale1" : {
                        "type" : "double",
                        "defaultValue" : -0.258940712585635,
                        "interp" : "eioe"
                      }
                    },
                    "leftEdgeMods" : [
                      {
                        "group" : "Visual",
                        "duration" : 30,
                        "parameters" : [
                          {
                            "name" : "DrawTime",
                              "func" : "FadeInFunc"
                            }
                        ]
                      }
                    ],
                    "effects" : [
                        {
                          "effectName" : "DropShadow",
                          "category" : "categoryVisualEffects",
                          "parameters" : {
                            "angle" : {
                              "type" : "double",
                              "defaultValue" : 5.49778714378214,
                              "interp" : "linr",
                              "uiHints" : {
                                "userInterfaceType" : 0,
                                "unitType" : 0
                              }
                            },
                            "blur" : {
                              "type" : "double",
                              "defaultValue" : 10.0,
                              "interp" : "linr",
                              "uiHints" : {
                                "userInterfaceType" : 0,
                                "unitType" : 0
                              }
                            },
                            "color-alpha" : {
                              "type" : "double",
                              "defaultValue" : 1.0,
                              "interp" : "linr",
                              "uiHints" : {
                                "userInterfaceType" : 0,
                                "unitType" : 0
                              }
                            },
                            "color-blue" : {
                              "type" : "double",
                              "defaultValue" : 0.1216,
                              "interp" : "linr",
                              "uiHints" : {
                                "userInterfaceType" : 0,
                                "unitType" : 0
                              }
                            },
                            "color-green" : {
                              "type" : "double",
                              "defaultValue" : 0.1216,
                              "interp" : "linr",
                              "uiHints" : {
                                "userInterfaceType" : 0,
                                "unitType" : 0
                              }
                            },
                            "color-red" : {
                              "type" : "double",
                              "defaultValue" : 0.1216,
                              "interp" : "linr",
                              "uiHints" : {
                                "userInterfaceType" : 0,
                                "unitType" : 0
                              }
                            },
                            "enabled" : 1,
                            "offset" : {
                              "type" : "double",
                              "defaultValue" : 10.0,
                              "interp" : "linr",
                              "uiHints" : {
                                "userInterfaceType" : 0,
                                "unitType" : 0
                              }
                            },
                            "opacity" : {
                              "type" : "double",
                              "defaultValue" : 0.4,
                              "interp" : "linr",
                              "uiHints" : {
                                "userInterfaceType" : 0,
                                "unitType" : 0
                              }
                            }
                          }
                        }
                    ],
                    "start" : 7709,
                    "duration" : 77,
                    "mediaStart" : 0,
                    "mediaDuration" : 77,
                    "scalar" : 1,
                    "metadata" : {
                      "clipSpeedAttribute" : false,
                      "default-callout-stroke-color" : "(255,255,0,255)",
                      "default-scale" : "1",
                      "effectApplied" : "none"
                    },
                    "animationTracks" : {

                    }
                  },
                  {
                    "id" : 94,
                    "_type" : "Callout",
                    "def" : {
                      "kind" : "MacSVG",
                      "shape" : "",
                      "style" : "",
                      "DrawTime" : {
                        "type" : "double",
                        "defaultValue" : 1.0,
                        "interp" : "linr"
                      },
                      "DrawTimeMac" : {
                        "type" : "double",
                        "defaultValue" : 1.0,
                        "interp" : "linr"
                      },
                      "height" : {
                        "type" : "double",
                        "defaultValue" : 281.438741657777,
                        "interp" : "linr"
                      },
                      "stroke-color-blue" : {
                        "type" : "double",
                        "defaultValue" : 0.392156862745098,
                        "interp" : "linr"
                      },
                      "stroke-color-green" : {
                        "type" : "double",
                        "defaultValue" : 0.0,
                        "interp" : "linr"
                      },
                      "stroke-color-red" : {
                        "type" : "double",
                        "defaultValue" : 1.0,
                        "interp" : "linr"
                      },
                      "stroke-width" : {
                        "type" : "double",
                        "defaultValue" : 3.0,
                        "interp" : "linr"
                      },
                      "width" : {
                        "type" : "double",
                        "defaultValue" : 393.874114954144,
                        "interp" : "linr"
                      },
                      "horizontal-alignment" : "center",
                      "vertical-alignment" : "center",
                      "xmlContent" : "<?xml version=\"1.0\" encoding=\"utf-8\"?>\r<!-- Generator: Adobe Illustrator 15.0.2, SVG Export Plug-In . SVG Version: 6.00 Build 0)  -->\r<!DOCTYPE svg PUBLIC \"-//W3C//DTD SVG 1.1//EN\" \"http://www.w3.org/Graphics/SVG/1.1/DTD/svg11.dtd\">\r<svg version=\"1.1\" id=\"Layer_2\" xmlns=\"http://www.w3.org/2000/svg\" xmlns:xlink=\"http://www.w3.org/1999/xlink\" x=\"0px\" y=\"0px\"\r\t width=\"420px\" height=\"420px\" viewBox=\"0 0 420 420\" enable-background=\"new 0 0 420 420\" xml:space=\"preserve\">\r<path fill=\"none\" stroke=\"#000000\" stroke-miterlimit=\"10\" d=\"M200.161,69.581c0,0-34.007-4.101-97.206,31.526\r\tC12.011,151.033-34.086,275.31,81.937,327.045c70.942,31.605,156.128,30.13,229.878,5.254\r\tc52.001-17.164,108.586-56.52,91.95-119.537C370.825,87.977,218.521,59.95,109.522,82.715\"/>\r</svg>\r",
                      "textAttributes" : {
                        "type" : "textAttributeList",
                        "keyframes" : [
                          {
                            "endTime" : 0,
                            "time" : 0,
                            "value" : null,
                            "duration" : 0
                          }
                        ]
                      }
                    },
                    "attributes" : {
                      "autoRotateText" : true
                    },
                    "parameters" : {
                      "translation0" : {
                        "type" : "double",
                        "defaultValue" : 120.748586389585,
                        "interp" : "eioe"
                      },
                      "translation1" : {
                        "type" : "double",
                        "defaultValue" : 181.402073802489,
                        "interp" : "eioe"
                      },
                      "rotation2" : {
                        "type" : "double",
                        "defaultValue" : -4.28129753871076e-15,
                        "interp" : "eioe"
                      },
                      "scale0" : {
                        "type" : "double",
                        "defaultValue" : -1.86472045521304,
                        "interp" : "eioe"
                      },
                      "scale1" : {
                        "type" : "double",
                        "defaultValue" : -0.258940712585635,
                        "interp" : "eioe"
                      }
                    },
                    "leftEdgeMods" : [
                      {
                        "group" : "Visual",
                        "duration" : 30,
                        "parameters" : [
                          {
                            "name" : "DrawTime",
                              "func" : "FadeInFunc"
                            }
                        ]
                      }
                    ],
                    "effects" : [
                        {
                          "effectName" : "DropShadow",
                          "category" : "categoryVisualEffects",
                          "parameters" : {
                            "angle" : {
                              "type" : "double",
                              "defaultValue" : 5.49778714378214,
                              "interp" : "linr",
                              "uiHints" : {
                                "userInterfaceType" : 0,
                                "unitType" : 0
                              }
                            },
                            "blur" : {
                              "type" : "double",
                              "defaultValue" : 10.0,
                              "interp" : "linr",
                              "uiHints" : {
                                "userInterfaceType" : 0,
                                "unitType" : 0
                              }
                            },
                            "color-alpha" : {
                              "type" : "double",
                              "defaultValue" : 1.0,
                              "interp" : "linr",
                              "uiHints" : {
                                "userInterfaceType" : 0,
                                "unitType" : 0
                              }
                            },
                            "color-blue" : {
                              "type" : "double",
                              "defaultValue" : 0.1216,
                              "interp" : "linr",
                              "uiHints" : {
                                "userInterfaceType" : 0,
                                "unitType" : 0
                              }
                            },
                            "color-green" : {
                              "type" : "double",
                              "defaultValue" : 0.1216,
                              "interp" : "linr",
                              "uiHints" : {
                                "userInterfaceType" : 0,
                                "unitType" : 0
                              }
                            },
                            "color-red" : {
                              "type" : "double",
                              "defaultValue" : 0.1216,
                              "interp" : "linr",
                              "uiHints" : {
                                "userInterfaceType" : 0,
                                "unitType" : 0
                              }
                            },
                            "enabled" : 1,
                            "offset" : {
                              "type" : "double",
                              "defaultValue" : 10.0,
                              "interp" : "linr",
                              "uiHints" : {
                                "userInterfaceType" : 0,
                                "unitType" : 0
                              }
                            },
                            "opacity" : {
                              "type" : "double",
                              "defaultValue" : 0.4,
                              "interp" : "linr",
                              "uiHints" : {
                                "userInterfaceType" : 0,
                                "unitType" : 0
                              }
                            }
                          }
                        }
                    ],
                    "start" : 7797,
                    "duration" : 77,
                    "mediaStart" : 0,
                    "mediaDuration" : 77,
                    "scalar" : 1,
                    "metadata" : {
                      "clipSpeedAttribute" : false,
                      "default-callout-stroke-color" : "(255,255,0,255)",
                      "default-scale" : "1",
                      "effectApplied" : "none"
                    },
                    "animationTracks" : {

                    }
                  },
                  {
                    "id" : 95,
                    "_type" : "Callout",
                    "def" : {
                      "kind" : "MacSVG",
                      "shape" : "",
                      "style" : "",
                      "DrawTime" : 1.0,
                      "DrawTimeMac" : 1.0,
                      "height" : 281.438741657777,
                      "stroke-color-blue" : 0.392156862745098,
                      "stroke-color-green" : 0.0,
                      "stroke-color-red" : 1.0,
                      "stroke-width" : 3.0,
                      "width" : 393.874114954144,
                      "horizontal-alignment" : "center",
                      "vertical-alignment" : "center",
                      "xmlContent" : "<?xml version=\"1.0\" encoding=\"utf-8\"?>\r<!-- Generator: Adobe Illustrator 15.0.2, SVG Export Plug-In . SVG Version: 6.00 Build 0)  -->\r<!DOCTYPE svg PUBLIC \"-//W3C//DTD SVG 1.1//EN\" \"http://www.w3.org/Graphics/SVG/1.1/DTD/svg11.dtd\">\r<svg version=\"1.1\" id=\"Layer_2\" xmlns=\"http://www.w3.org/2000/svg\" xmlns:xlink=\"http://www.w3.org/1999/xlink\" x=\"0px\" y=\"0px\"\r\t width=\"420px\" height=\"420px\" viewBox=\"0 0 420 420\" enable-background=\"new 0 0 420 420\" xml:space=\"preserve\">\r<path fill=\"none\" stroke=\"#000000\" stroke-miterlimit=\"10\" d=\"M200.161,69.581c0,0-34.007-4.101-97.206,31.526\r\tC12.011,151.033-34.086,275.31,81.937,327.045c70.942,31.605,156.128,30.13,229.878,5.254\r\tc52.001-17.164,108.586-56.52,91.95-119.537C370.825,87.977,218.521,59.95,109.522,82.715\"/>\r</svg>\r",
                      "textAttributes" : {
                        "type" : "textAttributeList",
                        "keyframes" : [
                          {
                            "endTime" : 0,
                            "time" : 0,
                            "value" : null,
                            "duration" : 0
                          }
                        ]
                      }
                    },
                    "attributes" : {
                      "autoRotateText" : true
                    },
                    "parameters" : {
                      "translation0" : -714.264357114685,
                      "translation1" : 476.917268367394,
                      "rotation2" : -4.28129753871076e-15,
                      "scale0" : 0.812465097184241,
                      "scale1" : 0.161732139916983
                    },
                    "leftEdgeMods" : [
                      {
                        "group" : "Visual",
                        "duration" : 30,
                        "parameters" : [
                          {
                            "name" : "DrawTime",
                              "func" : "FadeInFunc"
                            }
                        ]
                      }
                    ],
                    "effects" : [
                        {
                          "effectName" : "DropShadow",
                          "category" : "categoryVisualEffects",
                          "parameters" : {
                            "angle" : 5.49778714378214,
                            "blur" : 10.0,
                            "color-alpha" : 1.0,
                            "color-blue" : 0.1216,
                            "color-green" : 0.1216,
                            "color-red" : 0.1216,
                            "enabled" : 1,
                            "offset" : 10.0,
                            "opacity" : 0.4
                          }
                        }
                    ],
                    "start" : 8559,
                    "duration" : 77,
                    "mediaStart" : 0,
                    "mediaDuration" : 77,
                    "scalar" : 1,
                    "metadata" : {
                      "clipSpeedAttribute" : false,
                      "default-callout-stroke-color" : "(255,255,0,255)",
                      "default-scale" : "1",
                      "effectApplied" : "none"
                    },
                    "animationTracks" : {

                    }
                  },
                  {
                    "id" : 96,
                    "_type" : "Callout",
                    "def" : {
                      "kind" : "MacSVG",
                      "shape" : "",
                      "style" : "",
                      "DrawTime" : {
                        "type" : "double",
                        "defaultValue" : 1.0,
                        "interp" : "linr"
                      },
                      "DrawTimeMac" : {
                        "type" : "double",
                        "defaultValue" : 1.0,
                        "interp" : "linr"
                      },
                      "height" : {
                        "type" : "double",
                        "defaultValue" : 281.438741657777,
                        "interp" : "linr"
                      },
                      "stroke-color-blue" : {
                        "type" : "double",
                        "defaultValue" : 0.392156862745098,
                        "interp" : "linr"
                      },
                      "stroke-color-green" : {
                        "type" : "double",
                        "defaultValue" : 0.0,
                        "interp" : "linr"
                      },
                      "stroke-color-red" : {
                        "type" : "double",
                        "defaultValue" : 1.0,
                        "interp" : "linr"
                      },
                      "stroke-width" : {
                        "type" : "double",
                        "defaultValue" : 3.0,
                        "interp" : "linr"
                      },
                      "width" : {
                        "type" : "double",
                        "defaultValue" : 393.874114954144,
                        "interp" : "linr"
                      },
                      "horizontal-alignment" : "center",
                      "vertical-alignment" : "center",
                      "xmlContent" : "<?xml version=\"1.0\" encoding=\"utf-8\"?>\r<!-- Generator: Adobe Illustrator 15.0.2, SVG Export Plug-In . SVG Version: 6.00 Build 0)  -->\r<!DOCTYPE svg PUBLIC \"-//W3C//DTD SVG 1.1//EN\" \"http://www.w3.org/Graphics/SVG/1.1/DTD/svg11.dtd\">\r<svg version=\"1.1\" id=\"Layer_2\" xmlns=\"http://www.w3.org/2000/svg\" xmlns:xlink=\"http://www.w3.org/1999/xlink\" x=\"0px\" y=\"0px\"\r\t width=\"420px\" height=\"420px\" viewBox=\"0 0 420 420\" enable-background=\"new 0 0 420 420\" xml:space=\"preserve\">\r<path fill=\"none\" stroke=\"#000000\" stroke-miterlimit=\"10\" d=\"M200.161,69.581c0,0-34.007-4.101-97.206,31.526\r\tC12.011,151.033-34.086,275.31,81.937,327.045c70.942,31.605,156.128,30.13,229.878,5.254\r\tc52.001-17.164,108.586-56.52,91.95-119.537C370.825,87.977,218.521,59.95,109.522,82.715\"/>\r</svg>\r",
                      "textAttributes" : {
                        "type" : "textAttributeList",
                        "keyframes" : [
                          {
                            "endTime" : 0,
                            "time" : 0,
                            "value" : null,
                            "duration" : 0
                          }
                        ]
                      }
                    },
                    "attributes" : {
                      "autoRotateText" : true
                    },
                    "parameters" : {
                      "translation0" : {
                        "type" : "double",
                        "defaultValue" : -478.233918353597,
                        "interp" : "eioe"
                      },
                      "translation1" : {
                        "type" : "double",
                        "defaultValue" : -181.082731632606,
                        "interp" : "eioe"
                      },
                      "rotation2" : {
                        "type" : "double",
                        "defaultValue" : -4.28129753871076e-15,
                        "interp" : "eioe"
                      },
                      "scale0" : {
                        "type" : "double",
                        "defaultValue" : 0.510255610730898,
                        "interp" : "eioe"
                      },
                      "scale1" : {
                        "type" : "double",
                        "defaultValue" : 0.161732139916983,
                        "interp" : "eioe"
                      }
                    },
                    "leftEdgeMods" : [
                      {
                        "group" : "Visual",
                        "duration" : 30,
                        "parameters" : [
                          {
                            "name" : "DrawTime",
                              "func" : "FadeInFunc"
                            }
                        ]
                      }
                    ],
                    "effects" : [
                        {
                          "effectName" : "DropShadow",
                          "category" : "categoryVisualEffects",
                          "parameters" : {
                            "angle" : {
                              "type" : "double",
                              "defaultValue" : 5.49778714378214,
                              "interp" : "linr",
                              "uiHints" : {
                                "userInterfaceType" : 0,
                                "unitType" : 0
                              }
                            },
                            "blur" : {
                              "type" : "double",
                              "defaultValue" : 10.0,
                              "interp" : "linr",
                              "uiHints" : {
                                "userInterfaceType" : 0,
                                "unitType" : 0
                              }
                            },
                            "color-alpha" : {
                              "type" : "double",
                              "defaultValue" : 1.0,
                              "interp" : "linr",
                              "uiHints" : {
                                "userInterfaceType" : 0,
                                "unitType" : 0
                              }
                            },
                            "color-blue" : {
                              "type" : "double",
                              "defaultValue" : 0.1216,
                              "interp" : "linr",
                              "uiHints" : {
                                "userInterfaceType" : 0,
                                "unitType" : 0
                              }
                            },
                            "color-green" : {
                              "type" : "double",
                              "defaultValue" : 0.1216,
                              "interp" : "linr",
                              "uiHints" : {
                                "userInterfaceType" : 0,
                                "unitType" : 0
                              }
                            },
                            "color-red" : {
                              "type" : "double",
                              "defaultValue" : 0.1216,
                              "interp" : "linr",
                              "uiHints" : {
                                "userInterfaceType" : 0,
                                "unitType" : 0
                              }
                            },
                            "enabled" : 1,
                            "offset" : {
                              "type" : "double",
                              "defaultValue" : 10.0,
                              "interp" : "linr",
                              "uiHints" : {
                                "userInterfaceType" : 0,
                                "unitType" : 0
                              }
                            },
                            "opacity" : {
                              "type" : "double",
                              "defaultValue" : 0.4,
                              "interp" : "linr",
                              "uiHints" : {
                                "userInterfaceType" : 0,
                                "unitType" : 0
                              }
                            }
                          }
                        }
                    ],
                    "start" : 8974,
                    "duration" : 53,
                    "mediaStart" : 0,
                    "mediaDuration" : 53,
                    "scalar" : 1,
                    "metadata" : {
                      "clipSpeedAttribute" : false,
                      "default-callout-stroke-color" : "(255,255,0,255)",
                      "default-scale" : "1",
                      "effectApplied" : "none"
                    },
                    "animationTracks" : {

                    }
                  },
                  {
                    "id" : 97,
                    "_type" : "Callout",
                    "def" : {
                      "kind" : "MacSVG",
                      "shape" : "",
                      "style" : "",
                      "DrawTime" : {
                        "type" : "double",
                        "defaultValue" : 1.0,
                        "interp" : "linr"
                      },
                      "DrawTimeMac" : {
                        "type" : "double",
                        "defaultValue" : 1.0,
                        "interp" : "linr"
                      },
                      "height" : {
                        "type" : "double",
                        "defaultValue" : 281.438741657777,
                        "interp" : "linr"
                      },
                      "stroke-color-blue" : {
                        "type" : "double",
                        "defaultValue" : 0.392156862745098,
                        "interp" : "linr"
                      },
                      "stroke-color-green" : {
                        "type" : "double",
                        "defaultValue" : 0.0,
                        "interp" : "linr"
                      },
                      "stroke-color-red" : {
                        "type" : "double",
                        "defaultValue" : 1.0,
                        "interp" : "linr"
                      },
                      "stroke-width" : {
                        "type" : "double",
                        "defaultValue" : 3.0,
                        "interp" : "linr"
                      },
                      "width" : {
                        "type" : "double",
                        "defaultValue" : 393.874114954144,
                        "interp" : "linr"
                      },
                      "horizontal-alignment" : "center",
                      "vertical-alignment" : "center",
                      "xmlContent" : "<?xml version=\"1.0\" encoding=\"utf-8\"?>\r<!-- Generator: Adobe Illustrator 15.0.2, SVG Export Plug-In . SVG Version: 6.00 Build 0)  -->\r<!DOCTYPE svg PUBLIC \"-//W3C//DTD SVG 1.1//EN\" \"http://www.w3.org/Graphics/SVG/1.1/DTD/svg11.dtd\">\r<svg version=\"1.1\" id=\"Layer_2\" xmlns=\"http://www.w3.org/2000/svg\" xmlns:xlink=\"http://www.w3.org/1999/xlink\" x=\"0px\" y=\"0px\"\r\t width=\"420px\" height=\"420px\" viewBox=\"0 0 420 420\" enable-background=\"new 0 0 420 420\" xml:space=\"preserve\">\r<path fill=\"none\" stroke=\"#000000\" stroke-miterlimit=\"10\" d=\"M200.161,69.581c0,0-34.007-4.101-97.206,31.526\r\tC12.011,151.033-34.086,275.31,81.937,327.045c70.942,31.605,156.128,30.13,229.878,5.254\r\tc52.001-17.164,108.586-56.52,91.95-119.537C370.825,87.977,218.521,59.95,109.522,82.715\"/>\r</svg>\r",
                      "textAttributes" : {
                        "type" : "textAttributeList",
                        "keyframes" : [
                          {
                            "endTime" : 0,
                            "time" : 0,
                            "value" : null,
                            "duration" : 0
                          }
                        ]
                      }
                    },
                    "attributes" : {
                      "autoRotateText" : true
                    },
                    "parameters" : {
                      "translation0" : {
                        "type" : "double",
                        "defaultValue" : -478.233918353597,
                        "interp" : "eioe"
                      },
                      "translation1" : {
                        "type" : "double",
                        "defaultValue" : -201.082731632606,
                        "interp" : "eioe"
                      },
                      "rotation2" : {
                        "type" : "double",
                        "defaultValue" : -4.28129753871076e-15,
                        "interp" : "eioe"
                      },
                      "scale0" : {
                        "type" : "double",
                        "defaultValue" : 0.510255610730898,
                        "interp" : "eioe"
                      },
                      "scale1" : {
                        "type" : "double",
                        "defaultValue" : 0.161732139916983,
                        "interp" : "eioe"
                      }
                    },
                    "leftEdgeMods" : [
                      {
                        "group" : "Visual",
                        "duration" : 30,
                        "parameters" : [
                          {
                            "name" : "DrawTime",
                              "func" : "FadeInFunc"
                            }
                        ]
                      }
                    ],
                    "effects" : [
                        {
                          "effectName" : "DropShadow",
                          "category" : "categoryVisualEffects",
                          "parameters" : {
                            "angle" : {
                              "type" : "double",
                              "defaultValue" : 5.49778714378214,
                              "interp" : "linr",
                              "uiHints" : {
                                "userInterfaceType" : 0,
                                "unitType" : 0
                              }
                            },
                            "blur" : {
                              "type" : "double",
                              "defaultValue" : 10.0,
                              "interp" : "linr",
                              "uiHints" : {
                                "userInterfaceType" : 0,
                                "unitType" : 0
                              }
                            },
                            "color-alpha" : {
                              "type" : "double",
                              "defaultValue" : 1.0,
                              "interp" : "linr",
                              "uiHints" : {
                                "userInterfaceType" : 0,
                                "unitType" : 0
                              }
                            },
                            "color-blue" : {
                              "type" : "double",
                              "defaultValue" : 0.1216,
                              "interp" : "linr",
                              "uiHints" : {
                                "userInterfaceType" : 0,
                                "unitType" : 0
                              }
                            },
                            "color-green" : {
                              "type" : "double",
                              "defaultValue" : 0.1216,
                              "interp" : "linr",
                              "uiHints" : {
                                "userInterfaceType" : 0,
                                "unitType" : 0
                              }
                            },
                            "color-red" : {
                              "type" : "double",
                              "defaultValue" : 0.1216,
                              "interp" : "linr",
                              "uiHints" : {
                                "userInterfaceType" : 0,
                                "unitType" : 0
                              }
                            },
                            "enabled" : 1,
                            "offset" : {
                              "type" : "double",
                              "defaultValue" : 10.0,
                              "interp" : "linr",
                              "uiHints" : {
                                "userInterfaceType" : 0,
                                "unitType" : 0
                              }
                            },
                            "opacity" : {
                              "type" : "double",
                              "defaultValue" : 0.4,
                              "interp" : "linr",
                              "uiHints" : {
                                "userInterfaceType" : 0,
                                "unitType" : 0
                              }
                            }
                          }
                        }
                    ],
                    "start" : 9035,
                    "duration" : 53,
                    "mediaStart" : 0,
                    "mediaDuration" : 53,
                    "scalar" : 1,
                    "metadata" : {
                      "clipSpeedAttribute" : false,
                      "default-callout-stroke-color" : "(255,255,0,255)",
                      "default-scale" : "1",
                      "effectApplied" : "none"
                    },
                    "animationTracks" : {

                    }
                  },
                  {
                    "id" : 98,
                    "_type" : "Callout",
                    "def" : {
                      "kind" : "MacSVG",
                      "shape" : "",
                      "style" : "",
                      "DrawTime" : {
                        "type" : "double",
                        "defaultValue" : 1.0,
                        "interp" : "linr"
                      },
                      "DrawTimeMac" : {
                        "type" : "double",
                        "defaultValue" : 1.0,
                        "interp" : "linr"
                      },
                      "height" : {
                        "type" : "double",
                        "defaultValue" : 281.438741657777,
                        "interp" : "linr"
                      },
                      "stroke-color-blue" : {
                        "type" : "double",
                        "defaultValue" : 0.392156862745098,
                        "interp" : "linr"
                      },
                      "stroke-color-green" : {
                        "type" : "double",
                        "defaultValue" : 0.0,
                        "interp" : "linr"
                      },
                      "stroke-color-red" : {
                        "type" : "double",
                        "defaultValue" : 1.0,
                        "interp" : "linr"
                      },
                      "stroke-width" : {
                        "type" : "double",
                        "defaultValue" : 3.0,
                        "interp" : "linr"
                      },
                      "width" : {
                        "type" : "double",
                        "defaultValue" : 393.874114954144,
                        "interp" : "linr"
                      },
                      "horizontal-alignment" : "center",
                      "vertical-alignment" : "center",
                      "xmlContent" : "<?xml version=\"1.0\" encoding=\"utf-8\"?>\r<!-- Generator: Adobe Illustrator 15.0.2, SVG Export Plug-In . SVG Version: 6.00 Build 0)  -->\r<!DOCTYPE svg PUBLIC \"-//W3C//DTD SVG 1.1//EN\" \"http://www.w3.org/Graphics/SVG/1.1/DTD/svg11.dtd\">\r<svg version=\"1.1\" id=\"Layer_2\" xmlns=\"http://www.w3.org/2000/svg\" xmlns:xlink=\"http://www.w3.org/1999/xlink\" x=\"0px\" y=\"0px\"\r\t width=\"420px\" height=\"420px\" viewBox=\"0 0 420 420\" enable-background=\"new 0 0 420 420\" xml:space=\"preserve\">\r<path fill=\"none\" stroke=\"#000000\" stroke-miterlimit=\"10\" d=\"M200.161,69.581c0,0-34.007-4.101-97.206,31.526\r\tC12.011,151.033-34.086,275.31,81.937,327.045c70.942,31.605,156.128,30.13,229.878,5.254\r\tc52.001-17.164,108.586-56.52,91.95-119.537C370.825,87.977,218.521,59.95,109.522,82.715\"/>\r</svg>\r",
                      "textAttributes" : {
                        "type" : "textAttributeList",
                        "keyframes" : [
                          {
                            "endTime" : 0,
                            "time" : 0,
                            "value" : null,
                            "duration" : 0
                          }
                        ]
                      }
                    },
                    "attributes" : {
                      "autoRotateText" : true
                    },
                    "parameters" : {
                      "translation0" : {
                        "type" : "double",
                        "defaultValue" : -31.7423888943521,
                        "interp" : "eioe"
                      },
                      "translation1" : {
                        "type" : "double",
                        "defaultValue" : -271.286293644829,
                        "interp" : "eioe"
                      },
                      "rotation2" : {
                        "type" : "double",
                        "defaultValue" : -4.28129753871076e-15,
                        "interp" : "eioe"
                      },
                      "scale0" : {
                        "type" : "double",
                        "defaultValue" : 0.885646832509515,
                        "interp" : "eioe"
                      },
                      "scale1" : {
                        "type" : "double",
                        "defaultValue" : 1.3374057167039,
                        "interp" : "eioe"
                      }
                    },
                    "leftEdgeMods" : [
                      {
                        "group" : "Visual",
                        "duration" : 30,
                        "parameters" : [
                          {
                            "name" : "DrawTime",
                              "func" : "FadeInFunc"
                            }
                        ]
                      }
                    ],
                    "effects" : [
                        {
                          "effectName" : "DropShadow",
                          "category" : "categoryVisualEffects",
                          "parameters" : {
                            "angle" : {
                              "type" : "double",
                              "defaultValue" : 5.49778714378214,
                              "interp" : "linr",
                              "uiHints" : {
                                "userInterfaceType" : 0,
                                "unitType" : 0
                              }
                            },
                            "blur" : {
                              "type" : "double",
                              "defaultValue" : 10.0,
                              "interp" : "linr",
                              "uiHints" : {
                                "userInterfaceType" : 0,
                                "unitType" : 0
                              }
                            },
                            "color-alpha" : {
                              "type" : "double",
                              "defaultValue" : 1.0,
                              "interp" : "linr",
                              "uiHints" : {
                                "userInterfaceType" : 0,
                                "unitType" : 0
                              }
                            },
                            "color-blue" : {
                              "type" : "double",
                              "defaultValue" : 0.1216,
                              "interp" : "linr",
                              "uiHints" : {
                                "userInterfaceType" : 0,
                                "unitType" : 0
                              }
                            },
                            "color-green" : {
                              "type" : "double",
                              "defaultValue" : 0.1216,
                              "interp" : "linr",
                              "uiHints" : {
                                "userInterfaceType" : 0,
                                "unitType" : 0
                              }
                            },
                            "color-red" : {
                              "type" : "double",
                              "defaultValue" : 0.1216,
                              "interp" : "linr",
                              "uiHints" : {
                                "userInterfaceType" : 0,
                                "unitType" : 0
                              }
                            },
                            "enabled" : 1,
                            "offset" : {
                              "type" : "double",
                              "defaultValue" : 10.0,
                              "interp" : "linr",
                              "uiHints" : {
                                "userInterfaceType" : 0,
                                "unitType" : 0
                              }
                            },
                            "opacity" : {
                              "type" : "double",
                              "defaultValue" : 0.4,
                              "interp" : "linr",
                              "uiHints" : {
                                "userInterfaceType" : 0,
                                "unitType" : 0
                              }
                            }
                          }
                        }
                    ],
                    "start" : 9169,
                    "duration" : 53,
                    "mediaStart" : 0,
                    "mediaDuration" : 53,
                    "scalar" : 1,
                    "metadata" : {
                      "clipSpeedAttribute" : false,
                      "default-callout-stroke-color" : "(255,255,0,255)",
                      "default-scale" : "1",
                      "effectApplied" : "none"
                    },
                    "animationTracks" : {

                    }
                  },
                  {
                    "id" : 99,
                    "_type" : "Callout",
                    "def" : {
                      "kind" : "MacSVG",
                      "shape" : "",
                      "style" : "",
                      "DrawTime" : {
                        "type" : "double",
                        "defaultValue" : 1.0,
                        "interp" : "linr"
                      },
                      "DrawTimeMac" : {
                        "type" : "double",
                        "defaultValue" : 1.0,
                        "interp" : "linr"
                      },
                      "height" : {
                        "type" : "double",
                        "defaultValue" : 281.438741657777,
                        "interp" : "linr"
                      },
                      "stroke-color-blue" : {
                        "type" : "double",
                        "defaultValue" : 0.392156862745098,
                        "interp" : "linr"
                      },
                      "stroke-color-green" : {
                        "type" : "double",
                        "defaultValue" : 0.0,
                        "interp" : "linr"
                      },
                      "stroke-color-red" : {
                        "type" : "double",
                        "defaultValue" : 1.0,
                        "interp" : "linr"
                      },
                      "stroke-width" : {
                        "type" : "double",
                        "defaultValue" : 3.0,
                        "interp" : "linr"
                      },
                      "width" : {
                        "type" : "double",
                        "defaultValue" : 393.874114954144,
                        "interp" : "linr"
                      },
                      "horizontal-alignment" : "center",
                      "vertical-alignment" : "center",
                      "xmlContent" : "<?xml version=\"1.0\" encoding=\"utf-8\"?>\r<!-- Generator: Adobe Illustrator 15.0.2, SVG Export Plug-In . SVG Version: 6.00 Build 0)  -->\r<!DOCTYPE svg PUBLIC \"-//W3C//DTD SVG 1.1//EN\" \"http://www.w3.org/Graphics/SVG/1.1/DTD/svg11.dtd\">\r<svg version=\"1.1\" id=\"Layer_2\" xmlns=\"http://www.w3.org/2000/svg\" xmlns:xlink=\"http://www.w3.org/1999/xlink\" x=\"0px\" y=\"0px\"\r\t width=\"420px\" height=\"420px\" viewBox=\"0 0 420 420\" enable-background=\"new 0 0 420 420\" xml:space=\"preserve\">\r<path fill=\"none\" stroke=\"#000000\" stroke-miterlimit=\"10\" d=\"M200.161,69.581c0,0-34.007-4.101-97.206,31.526\r\tC12.011,151.033-34.086,275.31,81.937,327.045c70.942,31.605,156.128,30.13,229.878,5.254\r\tc52.001-17.164,108.586-56.52,91.95-119.537C370.825,87.977,218.521,59.95,109.522,82.715\"/>\r</svg>\r",
                      "textAttributes" : {
                        "type" : "textAttributeList",
                        "keyframes" : [
                          {
                            "endTime" : 0,
                            "time" : 0,
                            "value" : null,
                            "duration" : 0
                          }
                        ]
                      }
                    },
                    "attributes" : {
                      "autoRotateText" : true
                    },
                    "parameters" : {
                      "translation0" : {
                        "type" : "double",
                        "defaultValue" : 413.447004881046,
                        "interp" : "eioe"
                      },
                      "translation1" : {
                        "type" : "double",
                        "defaultValue" : -310.486644107993,
                        "interp" : "eioe"
                      },
                      "rotation2" : {
                        "type" : "double",
                        "defaultValue" : -4.28129753871076e-15,
                        "interp" : "eioe"
                      },
                      "scale0" : {
                        "type" : "double",
                        "defaultValue" : 1.25345200473468,
                        "interp" : "eioe"
                      },
                      "scale1" : {
                        "type" : "double",
                        "defaultValue" : 1.6130386977582,
                        "interp" : "eioe"
                      }
                    },
                    "leftEdgeMods" : [
                      {
                        "group" : "Visual",
                        "duration" : 30,
                        "parameters" : [
                          {
                            "name" : "DrawTime",
                              "func" : "FadeInFunc"
                            }
                        ]
                      }
                    ],
                    "effects" : [
                        {
                          "effectName" : "DropShadow",
                          "category" : "categoryVisualEffects",
                          "parameters" : {
                            "angle" : {
                              "type" : "double",
                              "defaultValue" : 5.49778714378214,
                              "interp" : "linr",
                              "uiHints" : {
                                "userInterfaceType" : 0,
                                "unitType" : 0
                              }
                            },
                            "blur" : {
                              "type" : "double",
                              "defaultValue" : 10.0,
                              "interp" : "linr",
                              "uiHints" : {
                                "userInterfaceType" : 0,
                                "unitType" : 0
                              }
                            },
                            "color-alpha" : {
                              "type" : "double",
                              "defaultValue" : 1.0,
                              "interp" : "linr",
                              "uiHints" : {
                                "userInterfaceType" : 0,
                                "unitType" : 0
                              }
                            },
                            "color-blue" : {
                              "type" : "double",
                              "defaultValue" : 0.1216,
                              "interp" : "linr",
                              "uiHints" : {
                                "userInterfaceType" : 0,
                                "unitType" : 0
                              }
                            },
                            "color-green" : {
                              "type" : "double",
                              "defaultValue" : 0.1216,
                              "interp" : "linr",
                              "uiHints" : {
                                "userInterfaceType" : 0,
                                "unitType" : 0
                              }
                            },
                            "color-red" : {
                              "type" : "double",
                              "defaultValue" : 0.1216,
                              "interp" : "linr",
                              "uiHints" : {
                                "userInterfaceType" : 0,
                                "unitType" : 0
                              }
                            },
                            "enabled" : 1,
                            "offset" : {
                              "type" : "double",
                              "defaultValue" : 10.0,
                              "interp" : "linr",
                              "uiHints" : {
                                "userInterfaceType" : 0,
                                "unitType" : 0
                              }
                            },
                            "opacity" : {
                              "type" : "double",
                              "defaultValue" : 0.4,
                              "interp" : "linr",
                              "uiHints" : {
                                "userInterfaceType" : 0,
                                "unitType" : 0
                              }
                            }
                          }
                        }
                    ],
                    "start" : 9238,
                    "duration" : 53,
                    "mediaStart" : 0,
                    "mediaDuration" : 53,
                    "scalar" : 1,
                    "metadata" : {
                      "clipSpeedAttribute" : false,
                      "default-callout-stroke-color" : "(255,255,0,255)",
                      "default-scale" : "1",
                      "effectApplied" : "none"
                    },
                    "animationTracks" : {

                    }
                  },
                  {
                    "id" : 100,
                    "_type" : "Callout",
                    "def" : {
                      "kind" : "MacSVG",
                      "shape" : "",
                      "style" : "",
                      "DrawTime" : {
                        "type" : "double",
                        "defaultValue" : 1.0,
                        "interp" : "linr"
                      },
                      "DrawTimeMac" : {
                        "type" : "double",
                        "defaultValue" : 1.0,
                        "interp" : "linr"
                      },
                      "height" : {
                        "type" : "double",
                        "defaultValue" : 281.438741657777,
                        "interp" : "linr"
                      },
                      "stroke-color-blue" : {
                        "type" : "double",
                        "defaultValue" : 0.392156862745098,
                        "interp" : "linr"
                      },
                      "stroke-color-green" : {
                        "type" : "double",
                        "defaultValue" : 0.0,
                        "interp" : "linr"
                      },
                      "stroke-color-red" : {
                        "type" : "double",
                        "defaultValue" : 1.0,
                        "interp" : "linr"
                      },
                      "stroke-width" : {
                        "type" : "double",
                        "defaultValue" : 3.0,
                        "interp" : "linr"
                      },
                      "width" : {
                        "type" : "double",
                        "defaultValue" : 393.874114954144,
                        "interp" : "linr"
                      },
                      "horizontal-alignment" : "center",
                      "vertical-alignment" : "center",
                      "xmlContent" : "<?xml version=\"1.0\" encoding=\"utf-8\"?>\r<!-- Generator: Adobe Illustrator 15.0.2, SVG Export Plug-In . SVG Version: 6.00 Build 0)  -->\r<!DOCTYPE svg PUBLIC \"-//W3C//DTD SVG 1.1//EN\" \"http://www.w3.org/Graphics/SVG/1.1/DTD/svg11.dtd\">\r<svg version=\"1.1\" id=\"Layer_2\" xmlns=\"http://www.w3.org/2000/svg\" xmlns:xlink=\"http://www.w3.org/1999/xlink\" x=\"0px\" y=\"0px\"\r\t width=\"420px\" height=\"420px\" viewBox=\"0 0 420 420\" enable-background=\"new 0 0 420 420\" xml:space=\"preserve\">\r<path fill=\"none\" stroke=\"#000000\" stroke-miterlimit=\"10\" d=\"M200.161,69.581c0,0-34.007-4.101-97.206,31.526\r\tC12.011,151.033-34.086,275.31,81.937,327.045c70.942,31.605,156.128,30.13,229.878,5.254\r\tc52.001-17.164,108.586-56.52,91.95-119.537C370.825,87.977,218.521,59.95,109.522,82.715\"/>\r</svg>\r",
                      "textAttributes" : {
                        "type" : "textAttributeList",
                        "keyframes" : [
                          {
                            "endTime" : 0,
                            "time" : 0,
                            "value" : null,
                            "duration" : 0
                          }
                        ]
                      }
                    },
                    "attributes" : {
                      "autoRotateText" : true
                    },
                    "parameters" : {
                      "translation0" : {
                        "type" : "double",
                        "defaultValue" : -361.528529078594,
                        "interp" : "eioe"
                      },
                      "translation1" : {
                        "type" : "double",
                        "defaultValue" : -271.486644107993,
                        "interp" : "eioe"
                      },
                      "rotation2" : {
                        "type" : "double",
                        "defaultValue" : -4.28129753871076e-15,
                        "interp" : "eioe"
                      },
                      "scale0" : {
                        "type" : "double",
                        "defaultValue" : 1.42995364451142,
                        "interp" : "eioe"
                      },
                      "scale1" : {
                        "type" : "double",
                        "defaultValue" : 1.6130386977582,
                        "interp" : "eioe"
                      }
                    },
                    "leftEdgeMods" : [
                      {
                        "group" : "Visual",
                        "duration" : 30,
                        "parameters" : [
                          {
                            "name" : "DrawTime",
                              "func" : "FadeInFunc"
                            }
                        ]
                      }
                    ],
                    "effects" : [
                        {
                          "effectName" : "DropShadow",
                          "category" : "categoryVisualEffects",
                          "parameters" : {
                            "angle" : {
                              "type" : "double",
                              "defaultValue" : 5.49778714378214,
                              "interp" : "linr",
                              "uiHints" : {
                                "userInterfaceType" : 0,
                                "unitType" : 0
                              }
                            },
                            "blur" : {
                              "type" : "double",
                              "defaultValue" : 10.0,
                              "interp" : "linr",
                              "uiHints" : {
                                "userInterfaceType" : 0,
                                "unitType" : 0
                              }
                            },
                            "color-alpha" : {
                              "type" : "double",
                              "defaultValue" : 1.0,
                              "interp" : "linr",
                              "uiHints" : {
                                "userInterfaceType" : 0,
                                "unitType" : 0
                              }
                            },
                            "color-blue" : {
                              "type" : "double",
                              "defaultValue" : 0.1216,
                              "interp" : "linr",
                              "uiHints" : {
                                "userInterfaceType" : 0,
                                "unitType" : 0
                              }
                            },
                            "color-green" : {
                              "type" : "double",
                              "defaultValue" : 0.1216,
                              "interp" : "linr",
                              "uiHints" : {
                                "userInterfaceType" : 0,
                                "unitType" : 0
                              }
                            },
                            "color-red" : {
                              "type" : "double",
                              "defaultValue" : 0.1216,
                              "interp" : "linr",
                              "uiHints" : {
                                "userInterfaceType" : 0,
                                "unitType" : 0
                              }
                            },
                            "enabled" : 1,
                            "offset" : {
                              "type" : "double",
                              "defaultValue" : 10.0,
                              "interp" : "linr",
                              "uiHints" : {
                                "userInterfaceType" : 0,
                                "unitType" : 0
                              }
                            },
                            "opacity" : {
                              "type" : "double",
                              "defaultValue" : 0.4,
                              "interp" : "linr",
                              "uiHints" : {
                                "userInterfaceType" : 0,
                                "unitType" : 0
                              }
                            }
                          }
                        }
                    ],
                    "start" : 9364,
                    "duration" : 53,
                    "mediaStart" : 0,
                    "mediaDuration" : 53,
                    "scalar" : 1,
                    "metadata" : {
                      "clipSpeedAttribute" : false,
                      "default-callout-stroke-color" : "(255,255,0,255)",
                      "default-scale" : "1",
                      "effectApplied" : "none"
                    },
                    "animationTracks" : {

                    }
                  },
                  {
                    "id" : 101,
                    "_type" : "Callout",
                    "def" : {
                      "kind" : "MacSVG",
                      "shape" : "",
                      "style" : "",
                      "DrawTime" : {
                        "type" : "double",
                        "defaultValue" : 1.0,
                        "interp" : "linr"
                      },
                      "DrawTimeMac" : {
                        "type" : "double",
                        "defaultValue" : 1.0,
                        "interp" : "linr"
                      },
                      "height" : {
                        "type" : "double",
                        "defaultValue" : 281.438741657777,
                        "interp" : "linr"
                      },
                      "stroke-color-blue" : {
                        "type" : "double",
                        "defaultValue" : 0.392156862745098,
                        "interp" : "linr"
                      },
                      "stroke-color-green" : {
                        "type" : "double",
                        "defaultValue" : 0.0,
                        "interp" : "linr"
                      },
                      "stroke-color-red" : {
                        "type" : "double",
                        "defaultValue" : 1.0,
                        "interp" : "linr"
                      },
                      "stroke-width" : {
                        "type" : "double",
                        "defaultValue" : 3.0,
                        "interp" : "linr"
                      },
                      "width" : {
                        "type" : "double",
                        "defaultValue" : 393.874114954144,
                        "interp" : "linr"
                      },
                      "horizontal-alignment" : "center",
                      "vertical-alignment" : "center",
                      "xmlContent" : "<?xml version=\"1.0\" encoding=\"utf-8\"?>\r<!-- Generator: Adobe Illustrator 15.0.2, SVG Export Plug-In . SVG Version: 6.00 Build 0)  -->\r<!DOCTYPE svg PUBLIC \"-//W3C//DTD SVG 1.1//EN\" \"http://www.w3.org/Graphics/SVG/1.1/DTD/svg11.dtd\">\r<svg version=\"1.1\" id=\"Layer_2\" xmlns=\"http://www.w3.org/2000/svg\" xmlns:xlink=\"http://www.w3.org/1999/xlink\" x=\"0px\" y=\"0px\"\r\t width=\"420px\" height=\"420px\" viewBox=\"0 0 420 420\" enable-background=\"new 0 0 420 420\" xml:space=\"preserve\">\r<path fill=\"none\" stroke=\"#000000\" stroke-miterlimit=\"10\" d=\"M200.161,69.581c0,0-34.007-4.101-97.206,31.526\r\tC12.011,151.033-34.086,275.31,81.937,327.045c70.942,31.605,156.128,30.13,229.878,5.254\r\tc52.001-17.164,108.586-56.52,91.95-119.537C370.825,87.977,218.521,59.95,109.522,82.715\"/>\r</svg>\r",
                      "textAttributes" : {
                        "type" : "textAttributeList",
                        "keyframes" : [
                          {
                            "endTime" : 0,
                            "time" : 0,
                            "value" : null,
                            "duration" : 0
                          }
                        ]
                      }
                    },
                    "attributes" : {
                      "autoRotateText" : true
                    },
                    "parameters" : {
                      "translation0" : {
                        "type" : "double",
                        "defaultValue" : 287.606779867754,
                        "interp" : "eioe"
                      },
                      "translation1" : {
                        "type" : "double",
                        "defaultValue" : -205.15226402554,
                        "interp" : "eioe"
                      },
                      "rotation2" : {
                        "type" : "double",
                        "defaultValue" : -4.28129753871076e-15,
                        "interp" : "eioe"
                      },
                      "scale0" : {
                        "type" : "double",
                        "defaultValue" : 1.60701386395764,
                        "interp" : "eioe"
                      },
                      "scale1" : {
                        "type" : "double",
                        "defaultValue" : 1.14661575223639,
                        "interp" : "eioe"
                      }
                    },
                    "leftEdgeMods" : [
                      {
                        "group" : "Visual",
                        "duration" : 30,
                        "parameters" : [
                          {
                            "name" : "DrawTime",
                              "func" : "FadeInFunc"
                            }
                        ]
                      }
                    ],
                    "effects" : [
                        {
                          "effectName" : "DropShadow",
                          "category" : "categoryVisualEffects",
                          "parameters" : {
                            "angle" : {
                              "type" : "double",
                              "defaultValue" : 5.49778714378214,
                              "interp" : "linr",
                              "uiHints" : {
                                "userInterfaceType" : 0,
                                "unitType" : 0
                              }
                            },
                            "blur" : {
                              "type" : "double",
                              "defaultValue" : 10.0,
                              "interp" : "linr",
                              "uiHints" : {
                                "userInterfaceType" : 0,
                                "unitType" : 0
                              }
                            },
                            "color-alpha" : {
                              "type" : "double",
                              "defaultValue" : 1.0,
                              "interp" : "linr",
                              "uiHints" : {
                                "userInterfaceType" : 0,
                                "unitType" : 0
                              }
                            },
                            "color-blue" : {
                              "type" : "double",
                              "defaultValue" : 0.1216,
                              "interp" : "linr",
                              "uiHints" : {
                                "userInterfaceType" : 0,
                                "unitType" : 0
                              }
                            },
                            "color-green" : {
                              "type" : "double",
                              "defaultValue" : 0.1216,
                              "interp" : "linr",
                              "uiHints" : {
                                "userInterfaceType" : 0,
                                "unitType" : 0
                              }
                            },
                            "color-red" : {
                              "type" : "double",
                              "defaultValue" : 0.1216,
                              "interp" : "linr",
                              "uiHints" : {
                                "userInterfaceType" : 0,
                                "unitType" : 0
                              }
                            },
                            "enabled" : 1,
                            "offset" : {
                              "type" : "double",
                              "defaultValue" : 10.0,
                              "interp" : "linr",
                              "uiHints" : {
                                "userInterfaceType" : 0,
                                "unitType" : 0
                              }
                            },
                            "opacity" : {
                              "type" : "double",
                              "defaultValue" : 0.4,
                              "interp" : "linr",
                              "uiHints" : {
                                "userInterfaceType" : 0,
                                "unitType" : 0
                              }
                            }
                          }
                        }
                    ],
                    "start" : 9465,
                    "duration" : 53,
                    "mediaStart" : 0,
                    "mediaDuration" : 53,
                    "scalar" : 1,
                    "metadata" : {
                      "clipSpeedAttribute" : false,
                      "default-callout-stroke-color" : "(255,255,0,255)",
                      "default-scale" : "1",
                      "effectApplied" : "none"
                    },
                    "animationTracks" : {

                    }
                  },
                  {
                    "id" : 102,
                    "_type" : "Callout",
                    "def" : {
                      "kind" : "MacSVG",
                      "shape" : "",
                      "style" : "",
                      "DrawTime" : 1.0,
                      "DrawTimeMac" : 1.0,
                      "height" : 281.438741657777,
                      "stroke-color-blue" : 0.392156862745098,
                      "stroke-color-green" : 0.0,
                      "stroke-color-red" : 1.0,
                      "stroke-width" : 3.0,
                      "width" : 393.874114954144,
                      "horizontal-alignment" : "center",
                      "vertical-alignment" : "center",
                      "xmlContent" : "<?xml version=\"1.0\" encoding=\"utf-8\"?>\r<!-- Generator: Adobe Illustrator 15.0.2, SVG Export Plug-In . SVG Version: 6.00 Build 0)  -->\r<!DOCTYPE svg PUBLIC \"-//W3C//DTD SVG 1.1//EN\" \"http://www.w3.org/Graphics/SVG/1.1/DTD/svg11.dtd\">\r<svg version=\"1.1\" id=\"Layer_2\" xmlns=\"http://www.w3.org/2000/svg\" xmlns:xlink=\"http://www.w3.org/1999/xlink\" x=\"0px\" y=\"0px\"\r\t width=\"420px\" height=\"420px\" viewBox=\"0 0 420 420\" enable-background=\"new 0 0 420 420\" xml:space=\"preserve\">\r<path fill=\"none\" stroke=\"#000000\" stroke-miterlimit=\"10\" d=\"M200.161,69.581c0,0-34.007-4.101-97.206,31.526\r\tC12.011,151.033-34.086,275.31,81.937,327.045c70.942,31.605,156.128,30.13,229.878,5.254\r\tc52.001-17.164,108.586-56.52,91.95-119.537C370.825,87.977,218.521,59.95,109.522,82.715\"/>\r</svg>\r",
                      "textAttributes" : {
                        "type" : "textAttributeList",
                        "keyframes" : [
                          {
                            "endTime" : 0,
                            "time" : 0,
                            "value" : null,
                            "duration" : 0
                          }
                        ]
                      }
                    },
                    "attributes" : {
                      "autoRotateText" : true
                    },
                    "parameters" : {
                      "translation0" : -464.425638411499,
                      "translation1" : -379.374323377718,
                      "rotation2" : 9.29811783123569e-16,
                      "scale0" : -0.548714598325198,
                      "scale1" : -0.176529135629384
                    },
                    "leftEdgeMods" : [
                      {
                        "group" : "Visual",
                        "duration" : 30,
                        "parameters" : [
                          {
                            "name" : "DrawTime",
                              "func" : "FadeInFunc"
                            }
                        ]
                      }
                    ],
                    "effects" : [
                        {
                          "effectName" : "DropShadow",
                          "category" : "categoryVisualEffects",
                          "parameters" : {
                            "angle" : 5.49778714378214,
                            "blur" : 10.0,
                            "color-alpha" : 1.0,
                            "color-blue" : 0.1216,
                            "color-green" : 0.1216,
                            "color-red" : 0.1216,
                            "enabled" : 1,
                            "offset" : 10.0,
                            "opacity" : 0.4
                          }
                        }
                    ],
                    "start" : 9648,
                    "duration" : 63,
                    "mediaStart" : 0,
                    "mediaDuration" : 63,
                    "scalar" : 1,
                    "metadata" : {
                      "clipSpeedAttribute" : false,
                      "default-callout-stroke-color" : "(255,255,0,255)",
                      "default-scale" : "1",
                      "effectApplied" : "none"
                    },
                    "animationTracks" : {

                    }
                  },
                  {
                    "id" : 103,
                    "_type" : "Callout",
                    "def" : {
                      "kind" : "MacSVG",
                      "shape" : "",
                      "style" : "",
                      "DrawTime" : {
                        "type" : "double",
                        "defaultValue" : 1.0,
                        "interp" : "linr"
                      },
                      "DrawTimeMac" : {
                        "type" : "double",
                        "defaultValue" : 1.0,
                        "interp" : "linr"
                      },
                      "height" : {
                        "type" : "double",
                        "defaultValue" : 281.438741657777,
                        "interp" : "linr"
                      },
                      "stroke-color-blue" : {
                        "type" : "double",
                        "defaultValue" : 0.392156862745098,
                        "interp" : "linr"
                      },
                      "stroke-color-green" : {
                        "type" : "double",
                        "defaultValue" : 0.0,
                        "interp" : "linr"
                      },
                      "stroke-color-red" : {
                        "type" : "double",
                        "defaultValue" : 1.0,
                        "interp" : "linr"
                      },
                      "stroke-width" : {
                        "type" : "double",
                        "defaultValue" : 3.0,
                        "interp" : "linr"
                      },
                      "width" : {
                        "type" : "double",
                        "defaultValue" : 393.874114954144,
                        "interp" : "linr"
                      },
                      "horizontal-alignment" : "center",
                      "vertical-alignment" : "center",
                      "xmlContent" : "<?xml version=\"1.0\" encoding=\"utf-8\"?>\r<!-- Generator: Adobe Illustrator 15.0.2, SVG Export Plug-In . SVG Version: 6.00 Build 0)  -->\r<!DOCTYPE svg PUBLIC \"-//W3C//DTD SVG 1.1//EN\" \"http://www.w3.org/Graphics/SVG/1.1/DTD/svg11.dtd\">\r<svg version=\"1.1\" id=\"Layer_2\" xmlns=\"http://www.w3.org/2000/svg\" xmlns:xlink=\"http://www.w3.org/1999/xlink\" x=\"0px\" y=\"0px\"\r\t width=\"420px\" height=\"420px\" viewBox=\"0 0 420 420\" enable-background=\"new 0 0 420 420\" xml:space=\"preserve\">\r<path fill=\"none\" stroke=\"#000000\" stroke-miterlimit=\"10\" d=\"M200.161,69.581c0,0-34.007-4.101-97.206,31.526\r\tC12.011,151.033-34.086,275.31,81.937,327.045c70.942,31.605,156.128,30.13,229.878,5.254\r\tc52.001-17.164,108.586-56.52,91.95-119.537C370.825,87.977,218.521,59.95,109.522,82.715\"/>\r</svg>\r",
                      "textAttributes" : {
                        "type" : "textAttributeList",
                        "keyframes" : [
                          {
                            "endTime" : 0,
                            "time" : 0,
                            "value" : null,
                            "duration" : 0
                          }
                        ]
                      }
                    },
                    "attributes" : {
                      "autoRotateText" : true
                    },
                    "parameters" : {
                      "translation0" : {
                        "type" : "double",
                        "defaultValue" : -495.59190325929,
                        "interp" : "eioe"
                      },
                      "translation1" : {
                        "type" : "double",
                        "defaultValue" : -275.374323377718,
                        "interp" : "eioe"
                      },
                      "rotation2" : {
                        "type" : "double",
                        "defaultValue" : 9.29811783123569e-16,
                        "interp" : "eioe"
                      },
                      "scale0" : {
                        "type" : "double",
                        "defaultValue" : -0.401734668185344,
                        "interp" : "eioe"
                      },
                      "scale1" : {
                        "type" : "double",
                        "defaultValue" : -0.176529135629384,
                        "interp" : "eioe"
                      }
                    },
                    "leftEdgeMods" : [
                      {
                        "group" : "Visual",
                        "duration" : 30,
                        "parameters" : [
                          {
                            "name" : "DrawTime",
                              "func" : "FadeInFunc"
                            }
                        ]
                      }
                    ],
                    "effects" : [
                        {
                          "effectName" : "DropShadow",
                          "category" : "categoryVisualEffects",
                          "parameters" : {
                            "angle" : {
                              "type" : "double",
                              "defaultValue" : 5.49778714378214,
                              "interp" : "linr",
                              "uiHints" : {
                                "userInterfaceType" : 0,
                                "unitType" : 0
                              }
                            },
                            "blur" : {
                              "type" : "double",
                              "defaultValue" : 10.0,
                              "interp" : "linr",
                              "uiHints" : {
                                "userInterfaceType" : 0,
                                "unitType" : 0
                              }
                            },
                            "color-alpha" : {
                              "type" : "double",
                              "defaultValue" : 1.0,
                              "interp" : "linr",
                              "uiHints" : {
                                "userInterfaceType" : 0,
                                "unitType" : 0
                              }
                            },
                            "color-blue" : {
                              "type" : "double",
                              "defaultValue" : 0.1216,
                              "interp" : "linr",
                              "uiHints" : {
                                "userInterfaceType" : 0,
                                "unitType" : 0
                              }
                            },
                            "color-green" : {
                              "type" : "double",
                              "defaultValue" : 0.1216,
                              "interp" : "linr",
                              "uiHints" : {
                                "userInterfaceType" : 0,
                                "unitType" : 0
                              }
                            },
                            "color-red" : {
                              "type" : "double",
                              "defaultValue" : 0.1216,
                              "interp" : "linr",
                              "uiHints" : {
                                "userInterfaceType" : 0,
                                "unitType" : 0
                              }
                            },
                            "enabled" : 1,
                            "offset" : {
                              "type" : "double",
                              "defaultValue" : 10.0,
                              "interp" : "linr",
                              "uiHints" : {
                                "userInterfaceType" : 0,
                                "unitType" : 0
                              }
                            },
                            "opacity" : {
                              "type" : "double",
                              "defaultValue" : 0.4,
                              "interp" : "linr",
                              "uiHints" : {
                                "userInterfaceType" : 0,
                                "unitType" : 0
                              }
                            }
                          }
                        }
                    ],
                    "start" : 9725,
                    "duration" : 63,
                    "mediaStart" : 0,
                    "mediaDuration" : 63,
                    "scalar" : 1,
                    "metadata" : {
                      "clipSpeedAttribute" : false,
                      "default-callout-stroke-color" : "(255,255,0,255)",
                      "default-scale" : "1",
                      "effectApplied" : "none"
                    },
                    "animationTracks" : {

                    }
                  },
                  {
                    "id" : 104,
                    "_type" : "Callout",
                    "def" : {
                      "kind" : "MacSVG",
                      "shape" : "",
                      "style" : "",
                      "DrawTime" : {
                        "type" : "double",
                        "defaultValue" : 1.0,
                        "interp" : "linr"
                      },
                      "DrawTimeMac" : {
                        "type" : "double",
                        "defaultValue" : 1.0,
                        "interp" : "linr"
                      },
                      "height" : {
                        "type" : "double",
                        "defaultValue" : 281.438741657777,
                        "interp" : "linr"
                      },
                      "stroke-color-blue" : {
                        "type" : "double",
                        "defaultValue" : 0.392156862745098,
                        "interp" : "linr"
                      },
                      "stroke-color-green" : {
                        "type" : "double",
                        "defaultValue" : 0.0,
                        "interp" : "linr"
                      },
                      "stroke-color-red" : {
                        "type" : "double",
                        "defaultValue" : 1.0,
                        "interp" : "linr"
                      },
                      "stroke-width" : {
                        "type" : "double",
                        "defaultValue" : 3.0,
                        "interp" : "linr"
                      },
                      "width" : {
                        "type" : "double",
                        "defaultValue" : 393.874114954144,
                        "interp" : "linr"
                      },
                      "horizontal-alignment" : "center",
                      "vertical-alignment" : "center",
                      "xmlContent" : "<?xml version=\"1.0\" encoding=\"utf-8\"?>\r<!-- Generator: Adobe Illustrator 15.0.2, SVG Export Plug-In . SVG Version: 6.00 Build 0)  -->\r<!DOCTYPE svg PUBLIC \"-//W3C//DTD SVG 1.1//EN\" \"http://www.w3.org/Graphics/SVG/1.1/DTD/svg11.dtd\">\r<svg version=\"1.1\" id=\"Layer_2\" xmlns=\"http://www.w3.org/2000/svg\" xmlns:xlink=\"http://www.w3.org/1999/xlink\" x=\"0px\" y=\"0px\"\r\t width=\"420px\" height=\"420px\" viewBox=\"0 0 420 420\" enable-background=\"new 0 0 420 420\" xml:space=\"preserve\">\r<path fill=\"none\" stroke=\"#000000\" stroke-miterlimit=\"10\" d=\"M200.161,69.581c0,0-34.007-4.101-97.206,31.526\r\tC12.011,151.033-34.086,275.31,81.937,327.045c70.942,31.605,156.128,30.13,229.878,5.254\r\tc52.001-17.164,108.586-56.52,91.95-119.537C370.825,87.977,218.521,59.95,109.522,82.715\"/>\r</svg>\r",
                      "textAttributes" : {
                        "type" : "textAttributeList",
                        "keyframes" : [
                          {
                            "endTime" : 0,
                            "time" : 0,
                            "value" : null,
                            "duration" : 0
                          }
                        ]
                      }
                    },
                    "attributes" : {
                      "autoRotateText" : true
                    },
                    "parameters" : {
                      "translation0" : {
                        "type" : "double",
                        "defaultValue" : 289.934441040037,
                        "interp" : "eioe"
                      },
                      "translation1" : {
                        "type" : "double",
                        "defaultValue" : -168.374323377718,
                        "interp" : "eioe"
                      },
                      "rotation2" : {
                        "type" : "double",
                        "defaultValue" : 9.29811783123569e-16,
                        "interp" : "eioe"
                      },
                      "scale0" : {
                        "type" : "double",
                        "defaultValue" : -1.25604256026593,
                        "interp" : "eioe"
                      },
                      "scale1" : {
                        "type" : "double",
                        "defaultValue" : -0.176529135629384,
                        "interp" : "eioe"
                      }
                    },
                    "leftEdgeMods" : [
                      {
                        "group" : "Visual",
                        "duration" : 30,
                        "parameters" : [
                          {
                            "name" : "DrawTime",
                              "func" : "FadeInFunc"
                            }
                        ]
                      }
                    ],
                    "effects" : [
                        {
                          "effectName" : "DropShadow",
                          "category" : "categoryVisualEffects",
                          "parameters" : {
                            "angle" : {
                              "type" : "double",
                              "defaultValue" : 5.49778714378214,
                              "interp" : "linr",
                              "uiHints" : {
                                "userInterfaceType" : 0,
                                "unitType" : 0
                              }
                            },
                            "blur" : {
                              "type" : "double",
                              "defaultValue" : 10.0,
                              "interp" : "linr",
                              "uiHints" : {
                                "userInterfaceType" : 0,
                                "unitType" : 0
                              }
                            },
                            "color-alpha" : {
                              "type" : "double",
                              "defaultValue" : 1.0,
                              "interp" : "linr",
                              "uiHints" : {
                                "userInterfaceType" : 0,
                                "unitType" : 0
                              }
                            },
                            "color-blue" : {
                              "type" : "double",
                              "defaultValue" : 0.1216,
                              "interp" : "linr",
                              "uiHints" : {
                                "userInterfaceType" : 0,
                                "unitType" : 0
                              }
                            },
                            "color-green" : {
                              "type" : "double",
                              "defaultValue" : 0.1216,
                              "interp" : "linr",
                              "uiHints" : {
                                "userInterfaceType" : 0,
                                "unitType" : 0
                              }
                            },
                            "color-red" : {
                              "type" : "double",
                              "defaultValue" : 0.1216,
                              "interp" : "linr",
                              "uiHints" : {
                                "userInterfaceType" : 0,
                                "unitType" : 0
                              }
                            },
                            "enabled" : 1,
                            "offset" : {
                              "type" : "double",
                              "defaultValue" : 10.0,
                              "interp" : "linr",
                              "uiHints" : {
                                "userInterfaceType" : 0,
                                "unitType" : 0
                              }
                            },
                            "opacity" : {
                              "type" : "double",
                              "defaultValue" : 0.4,
                              "interp" : "linr",
                              "uiHints" : {
                                "userInterfaceType" : 0,
                                "unitType" : 0
                              }
                            }
                          }
                        }
                    ],
                    "start" : 9924,
                    "duration" : 63,
                    "mediaStart" : 0,
                    "mediaDuration" : 63,
                    "scalar" : 1,
                    "metadata" : {
                      "clipSpeedAttribute" : false,
                      "default-callout-stroke-color" : "(255,255,0,255)",
                      "default-scale" : "1",
                      "effectApplied" : "none"
                    },
                    "animationTracks" : {

                    }
                  }
                ],
                "transitions" : [
                  {
                    "name" : "Fade",
                    "duration" : 30,
                    "trivial" : false,
                    "useAudioPreRoll" : false,
                    "useVisualPreRoll" : true,
                    "leftMedia" : 93
                  },
                  {
                    "name" : "Fade",
                    "duration" : 30,
                    "trivial" : false,
                    "useAudioPreRoll" : false,
                    "useVisualPreRoll" : true,
                    "leftMedia" : 94
                  },
                  {
                    "name" : "Fade",
                    "duration" : 30,
                    "trivial" : false,
                    "useAudioPreRoll" : false,
                    "useVisualPreRoll" : true,
                    "leftMedia" : 95
                  },
                  {
                    "name" : "Fade",
                    "duration" : 30,
                    "trivial" : false,
                    "useAudioPreRoll" : false,
                    "useVisualPreRoll" : true,
                    "leftMedia" : 96
                  },
                  {
                    "name" : "Fade",
                    "duration" : 30,
                    "trivial" : false,
                    "useAudioPreRoll" : false,
                    "useVisualPreRoll" : true,
                    "leftMedia" : 97
                  },
                  {
                    "name" : "Fade",
                    "duration" : 30,
                    "trivial" : false,
                    "useAudioPreRoll" : false,
                    "useVisualPreRoll" : true,
                    "leftMedia" : 98
                  },
                  {
                    "name" : "Fade",
                    "duration" : 30,
                    "trivial" : false,
                    "useAudioPreRoll" : false,
                    "useVisualPreRoll" : true,
                    "leftMedia" : 99
                  },
                  {
                    "name" : "Fade",
                    "duration" : 30,
                    "trivial" : false,
                    "useAudioPreRoll" : false,
                    "useVisualPreRoll" : true,
                    "leftMedia" : 100
                  },
                  {
                    "name" : "Fade",
                    "duration" : 30,
                    "trivial" : false,
                    "useAudioPreRoll" : false,
                    "useVisualPreRoll" : true,
                    "leftMedia" : 101
                  },
                  {
                    "name" : "Fade",
                    "duration" : 30,
                    "trivial" : false,
                    "useAudioPreRoll" : false,
                    "useVisualPreRoll" : true,
                    "leftMedia" : 102
                  },
                  {
                    "name" : "Fade",
                    "duration" : 30,
                    "trivial" : false,
                    "useAudioPreRoll" : false,
                    "useVisualPreRoll" : true,
                    "leftMedia" : 103
                  },
                  {
                    "name" : "Fade",
                    "duration" : 30,
                    "trivial" : false,
                    "useAudioPreRoll" : false,
                    "useVisualPreRoll" : true,
                    "leftMedia" : 104
                  }
                ]
              },
              {
                "trackIndex" : 4,
                "medias" : [
                ]
              }
            ]
          }
        }
      ]
    },
    "trackAttributes" : [
      {
        "ident" : "",
        "audioMuted" : false,
        "videoHidden" : false,
        "metadata" : {
          "IsLocked" : "False",
          "trackHeight" : "54"
        }
      },
      {
        "ident" : "",
        "audioMuted" : false,
        "videoHidden" : false,
        "metadata" : {
          "IsLocked" : "False",
          "trackHeight" : "54"
        }
      },
      {
        "ident" : "",
        "audioMuted" : false,
        "videoHidden" : false,
        "metadata" : {
          "IsLocked" : "False",
          "trackHeight" : "54"
        }
      },
      {
        "ident" : "",
        "audioMuted" : false,
        "videoHidden" : false,
        "metadata" : {
          "IsLocked" : "False",
          "trackHeight" : "54"
        }
      },
      {
        "ident" : "",
        "audioMuted" : false,
        "videoHidden" : false,
        "metadata" : {
          "IsLocked" : "False",
          "trackHeight" : "54"
        }
      }
    ],
    "captionAttributes" : {
      "enabled" : true,
      "fontName" : "Arial",
      "fontSize" : 32,
      "backgroundColor" : [ 0, 0, 0, 127],
      "foregroundColor" : [ 255, 255, 255, 255],
      "lang" : "en",
      "alignment" : 0,
      "defaultFontSize" : true,
      "opacity" : 0.5,
      "backgroundEnabled" : true,
      "backgroundOnlyAroundText" : true
    },
    "backgroundColor" : [ 0, 0, 0, 255]
  },
  "metadata" : {
    "activeThemeId" : "c56a4180-65aa-42ec-a945-5fd21dec0542",
    "firstMedia" : true,
    "hasNotifiedAboutHFRMedia" : false
  }
}
